<svg xmlns="http://www.w3.org/2000/svg" xmlns:xlink="http://www.w3.org/1999/xlink" viewBox="0 0 243.79 180.71"><defs><style>.cls-1,.cls-13,.cls-24,.cls-25,.cls-9{fill:none;}.cls-2{isolation:isolate;}.cls-3{fill:#fff0c7;}.cls-4{fill:#009052;}.cls-5{fill:#e5d541;}.cls-6{clip-path:url(#clip-path);}.cls-7{opacity:0.34;}.cls-29,.cls-7{mix-blend-mode:multiply;}.cls-8{clip-path:url(#clip-path-2);}.cls-13,.cls-9{stroke:#57b36a;}.cls-13,.cls-24,.cls-25,.cls-9{stroke-linecap:round;stroke-linejoin:round;}.cls-9{stroke-width:1.01px;}.cls-10{opacity:0.3;mix-blend-mode:screen;}.cls-11{clip-path:url(#clip-path-3);}.cls-12{fill:#57b36a;}.cls-13{stroke-width:0.34px;}.cls-14{fill:#9b1918;}.cls-14,.cls-15,.cls-16,.cls-17,.cls-20{fill-rule:evenodd;}.cls-15,.cls-21{fill:#a81a1c;}.cls-16{fill:#861813;}.cls-17{fill:#c3333c;}.cls-18{fill:#2c6b2e;}.cls-19{fill:#275425;}.cls-20{fill:#361f13;}.cls-22{fill:#e10738;}.cls-23{fill:#077681;}.cls-24,.cls-25{stroke:#077681;}.cls-24{stroke-width:1.03px;}.cls-25{stroke-width:0.95px;}.cls-26{fill:#f0864a;}.cls-27{fill:#e75052;}.cls-28{clip-path:url(#clip-path-4);}.cls-29{opacity:0.21;}.cls-30{clip-path:url(#clip-path-5);}.cls-31{fill:#d70d39;}.cls-32{fill:#5ab259;}.cls-33{fill:#eb644e;}.cls-34{fill:#e84847;}.cls-35{fill:#825645;}.cls-36{fill:#ee7e64;}.cls-37{fill:#fcd782;}.cls-38{fill:#26231f;}.cls-39{fill:#cd583c;}.cls-40{fill:#fff;}.cls-41{fill:#d67c5e;}.cls-42{fill:#ddb86d;}.cls-43{fill:#f4daab;}.cls-44{fill:#d8af68;}.cls-45{fill:#446b38;}.cls-46{fill:#738e6b;}</style><clipPath id="clip-path"><path class="cls-1" d="M161.32,53.52c17.25,9.4,28,40.51-.85,56.75v0l-.45.22c-.16.08-.29.18-.44.26l0,0c-29.5,15.07-49.45-11.12-47.75-30.68,2.9-33.39-9.76-43.09,3.41-51.24l0,0,.78-.39c.24-.14.48-.29.75-.43l0,.05a14,14,0,0,1,5.81-1.47c9.3,0,13.95,13.43,38.76,27"/></clipPath><clipPath id="clip-path-2"><rect class="cls-1" x="82.63" y="40.75" width="69.26" height="88.69"/></clipPath><clipPath id="clip-path-3"><rect class="cls-1" x="119.89" width="22.6" height="18.89"/></clipPath><clipPath id="clip-path-4"><path class="cls-1" d="M199.63,85.36c-8.52,1.22-14.29,5.11-12.91,14.74a30.85,30.85,0,0,0,5.53,13c6.76.82,13.77,1.55,21,2.15a30.84,30.84,0,0,0,4.36-19.57C216.44,87.72,210.74,85,204,85a30.86,30.86,0,0,0-4.34.33"/></clipPath><clipPath id="clip-path-5"><rect class="cls-1" x="203.44" y="86.84" width="35.16" height="35.44"/></clipPath></defs><title>ilustra_new</title><g class="cls-2"><g id="Layer_1" data-name="Layer 1"><circle class="cls-3" cx="121.25" cy="92.64" r="88.07"/><path class="cls-4" d="M142.49.94s1.94,24.26-22.55,18c0,0-2-23.87,22.55-17.95"/><path class="cls-5" d="M111.82,80.07c2.9-33.39-9.76-43.09,3.41-51.24l0,0,.78-.39c.24-.14.48-.29.75-.43l0,.05c14.08-6.46,15.15,9.45,44.57,25.51,17.25,9.4,28,40.51-.85,56.75v0l-.45.22-.44.26,0,0c-29.5,15.07-49.45-11.12-47.75-30.68"/><g class="cls-6"><g class="cls-7"><g class="cls-8"><path class="cls-5" d="M85.33,94.27c2.9-33.38-9.77-43.08,3.4-51.23l0,0c.27-.15.52-.27.77-.39l.75-.43,0,0c14.08-6.46,15.15,9.45,44.57,25.51,17.24,9.4,28,40.51-.86,56.75l0,0-.46.22-.44.26v0C103.58,140,83.62,113.84,85.33,94.27"/></g></g></g><path class="cls-9" d="M114.8,16.18s-3.15,7.65,2.51,16.84"/><g class="cls-10"><g class="cls-11"><path class="cls-12" d="M119.94,18.89S117.91-5,142.49.94Z"/></g></g><path class="cls-13" d="M120.43,18.49a8.88,8.88,0,0,0-4.79,8.33"/><path class="cls-14" d="M105.87,114.46c-1.38.05-3.46,1.28-7.53.86-6.06-.63-14.23-7.18-18.71-15.55-13.85-25.89-4.34-42.25,4.71-45.95s16.23.51,22,.51,12.89-4.22,22-.51S146.82,73.88,133,99.77c-4.7,8.79-11.38,13.91-19.88,15.46C110,115.79,107.45,114.41,105.87,114.46Z"/><path class="cls-15" d="M81,95c-13.08-22-3.78-36.83,4.11-40.06s14.14.45,19.13.45,11.4-4,19.14-.45C152.92,68.54,91.6,112.75,81,95Z"/><path class="cls-16" d="M97.71,59.49a7.72,7.72,0,0,0,2.88,3.3,12.26,12.26,0,0,0,11.64,1.57c1.89-.77,5-3.24,4-5.66-.54-1.36-2.27-1.64-3.56-1.63-2.23,0-4.1,1.45-6.11,2.22a.1.1,0,0,0,0,0,20.07,20.07,0,0,1-4.07-2.15c-1.06-.56-2.56-1.38-3.76-.73A2.54,2.54,0,0,0,97.71,59.49Z"/><path class="cls-17" d="M88,85.55c3.12,0-2-3-2-13,0-6.29,5.08-10.48-1.53-10.48-3.12,0-6.85,3.77-7.4,6.83C75.67,76.38,80.66,85.55,88,85.55Z"/><path class="cls-18" d="M73.51,40.15a3.5,3.5,0,0,1,2.08-2.08,22.51,22.51,0,0,1,8.6-2.13,17.52,17.52,0,0,1,9.13,1.76,18.44,18.44,0,0,1,7.54,8,18,18,0,0,1,1.18,3,3.71,3.71,0,0,0,.85,1.69c.39.39.88.69,1.29,1.07a6.79,6.79,0,0,1,1.56,2.37.19.19,0,0,1,.26.05c.62.74,2.69,4.2.74,4.55-1.06.19-1.59-1.49-1.89-2.21-.38-.95-.79-2.35-1.72-2.94C98.88,45.84,83.9,42.06,73.51,40.15Z"/><path class="cls-19" d="M73.51,41.4a2.8,2.8,0,0,1-.05-1,2.5,2.5,0,0,1,.05-.29c10.39,1.91,25.37,5.69,29.62,13.13a1.76,1.76,0,0,0-.6-.24,8.94,8.94,0,0,0-3.13.29l-1.15.23c-.69.15-1.38.3-2.08.42a18.61,18.61,0,0,1-14.56-3.51,31.15,31.15,0,0,1-3.75-3.31,32.43,32.43,0,0,1-3-3.28A6.9,6.9,0,0,1,73.51,41.4Z"/><path class="cls-20" d="M107,62.05c1.53-.31.19-2.39,1.17-5.5,1.2-3.78,3.83-5.75,2.38-6.62-1.78-1.06-3.69,1.86-4.64,6.06C105.35,58.53,104.82,62.49,107,62.05Z"/><path class="cls-21" d="M114,90.76a.7.7,0,0,0,0-1.4.7.7,0,0,0,0,1.4Z"/><path class="cls-22" d="M240.16,111.16c-6.44,6.33-20,10.56-25.58,4.86s-1.13-19.16,5.3-25.49S232.4,86.37,238,92.07s8.6,12.76,2.16,19.09"/><path class="cls-23" d="M237.82,91.4l-3.38-2.62a.33.33,0,0,0-.49.42l1.54,2.58a.33.33,0,0,1-.28.49l-2.57,1.08a.33.33,0,0,0-.1.64l4.16,0a.34.34,0,0,1,.22.35l-.5,3.51a.32.32,0,0,0,.51.31l2.22-1.61a.33.33,0,0,1,.38,0l2.69,1.84a.33.33,0,0,0,.47-.44L240.39,94l0-.06-2.49-2.54,0,0"/><path class="cls-24" d="M238.14,94.41s4.17-3.35,2.25-7.2"/><path class="cls-22" d="M188.87,97.52c-7.64,3.34-20.73,2.55-23.69-4.21s5.32-16.93,13-20.28,12.18.53,15.14,7.29,3.23,13.85-4.41,17.2"/><path class="cls-23" d="M193.34,79.68l-2.05-3.38a.3.3,0,0,0-.56.21l.48,2.73a.3.3,0,0,1-.41.33l-2.57.09a.3.3,0,0,0-.3.52l3.61,1.33a.3.3,0,0,1,.07.38L190,84.75a.3.3,0,0,0,.34.44l2.44-.66a.31.31,0,0,1,.33.12l1.72,2.48a.31.31,0,0,0,.55-.23l-.71-4.1a.14.14,0,0,0,0-.07l-1.32-3a.08.08,0,0,0,0,0"/><path class="cls-25" d="M192.64,82.38s4.69-1.52,4.3-5.47"/><path class="cls-26" d="M188,92.5c-.44.21-.9.18-1-.08s.13-.64.57-.85,1.86-.64,2-.38-1.09,1.1-1.53,1.31"/><path class="cls-26" d="M185.42,88c-.44.22-.9.18-1-.07s.14-.64.58-.86,1.86-.63,2-.38-1.09,1.1-1.53,1.31"/><path class="cls-26" d="M184.29,82.87c-.44.21-.9.18-1-.08s.14-.64.58-.85,1.85-.64,2-.38-1.1,1.1-1.54,1.31"/><path class="cls-26" d="M181.29,78.57c-.44.22-.9.18-1-.07s.14-.64.58-.85,1.86-.64,2-.39-1.09,1.1-1.53,1.31"/><path class="cls-26" d="M182.73,92.42c-.44.21-.9.17-1-.08s.13-.64.57-.85,1.86-.64,2-.38-1.09,1.09-1.53,1.31"/><path class="cls-26" d="M179.72,88.12c-.44.21-.9.18-1-.08s.13-.64.57-.85,1.86-.64,2-.38-1.1,1.1-1.54,1.31"/><path class="cls-26" d="M177,92.13c-.45.21-.9.17-1-.08s.14-.64.58-.85,1.86-.64,2-.38-1.09,1.1-1.53,1.31"/><path class="cls-26" d="M170.3,92.25c-.44.21-.9.18-1-.08s.13-.64.57-.85,1.86-.64,2-.38-1.1,1.1-1.54,1.31"/><path class="cls-26" d="M174,87.83c-.44.21-.9.18-1-.08s.13-.64.57-.85,1.86-.64,2-.38-1.09,1.1-1.53,1.31"/><path class="cls-26" d="M173.17,82.13c-.44.22-.9.18-1-.08s.14-.63.58-.85,1.86-.63,2-.38-1.09,1.1-1.53,1.31"/><path class="cls-26" d="M179.36,96.27c-.44.21-.9.17-1-.09s.13-.63.58-.84,1.85-.64,2-.38-1.1,1.09-1.54,1.31"/><path class="cls-26" d="M178.6,83c-.44.21-.9.17-1-.08s.13-.64.57-.85,1.86-.64,2-.38S179,82.78,178.6,83"/><path class="cls-27" d="M217.58,95.69c1.38,9.62-3.6,24.08-12.12,25.3s-17.36-11.26-18.74-20.89,4.39-13.52,12.91-14.74,16.57.69,18,10.33"/><path class="cls-23" d="M198.94,85.09l-4.44,1.26a.35.35,0,0,0,.06.69l3.21.31a.35.35,0,0,1,.25.56l-.7,2.92a.36.36,0,0,0,.49.5l2.62-3.64a.35.35,0,0,1,.45,0l2.72,2.67a.35.35,0,0,0,.6-.25l0-3a.37.37,0,0,1,.24-.33l3.32-1.16a.35.35,0,0,0-.08-.68l-4.84-.49h-.08l-3.79.54h-.05"/><path class="cls-24" d="M201.75,86.73s-.24-5.75-4.8-6.55"/><path class="cls-26" d="M211.65,95.15c.11.57-.08,1.07-.4,1.13s-.68-.35-.78-.91-.13-2.29.19-2.35.89,1.57,1,2.13"/><path class="cls-26" d="M205.8,96.6c.1.56-.08,1.06-.41,1.12s-.67-.35-.77-.91-.14-2.29.19-2.35.89,1.57,1,2.14"/><path class="cls-26" d="M199.7,96.26c.1.56-.08,1.06-.41,1.12s-.67-.35-.78-.91-.14-2.28.19-2.34.9,1.57,1,2.13"/><path class="cls-26" d="M193.93,98.29c.1.57-.08,1.07-.41,1.13s-.67-.35-.77-.91-.14-2.29.19-2.35.89,1.57,1,2.13"/><path class="cls-26" d="M209.93,101c.1.56-.08,1.06-.41,1.12s-.67-.35-.77-.91-.14-2.29.19-2.35.89,1.57,1,2.14"/><path class="cls-26" d="M204.17,103c.1.56-.09,1.07-.41,1.12s-.68-.34-.78-.91-.13-2.28.19-2.34.9,1.57,1,2.13"/><path class="cls-26" d="M207.81,107.36c.1.56-.08,1.06-.4,1.12s-.68-.35-.78-.91-.14-2.29.19-2.34.89,1.56,1,2.13"/><path class="cls-26" d="M205.86,114.91c.11.56-.08,1.06-.4,1.12s-.68-.35-.78-.91-.14-2.29.19-2.35.89,1.57,1,2.14"/><path class="cls-26" d="M202.05,109.39c.1.56-.08,1.07-.41,1.13s-.68-.35-.78-.92-.13-2.28.19-2.34.9,1.57,1,2.13"/><path class="cls-26" d="M195.4,108.53c.1.56-.09,1.06-.41,1.12s-.68-.35-.78-.91-.14-2.29.19-2.35.89,1.58,1,2.14"/><path class="cls-26" d="M213.21,106c.1.56-.09,1.06-.41,1.12s-.68-.35-.78-.91-.13-2.28.19-2.34.89,1.57,1,2.13"/><path class="cls-26" d="M198.06,102.69c.1.57-.08,1.07-.41,1.13s-.68-.35-.77-.91-.14-2.29.19-2.35.89,1.57,1,2.13"/><g class="cls-28"><g class="cls-29"><g class="cls-30"><path class="cls-27" d="M234.58,113.93c-7.13,7-22.12,11.69-28.32,5.38S205,98.1,212.14,91.1s13.85-4.6,20.05,1.7,9.51,14.13,2.39,21.13"/></g></g></g><path class="cls-26" d="M237.3,106.44c-.37.39-.84.53-1.07.31s-.11-.69.26-1.08,1.63-1.36,1.85-1.15-.68,1.54-1,1.92"/><path class="cls-26" d="M233,102.86c-.36.39-.84.53-1.06.31s-.11-.69.25-1.08,1.63-1.36,1.86-1.14-.68,1.53-1.05,1.91"/><path class="cls-26" d="M229.89,98.11c-.36.39-.84.53-1.06.32s-.11-.7.25-1.09,1.64-1.36,1.86-1.14-.68,1.53-1.05,1.91"/><path class="cls-26" d="M225.2,94.92c-.37.39-.84.53-1.07.32s-.11-.7.26-1.08S226,92.8,226.25,93s-.69,1.53-1.05,1.91"/><path class="cls-26" d="M232,108.37c-.36.38-.84.52-1.06.31s-.11-.7.25-1.08,1.64-1.36,1.86-1.15-.68,1.53-1.05,1.92"/><path class="cls-26" d="M227.29,105.18c-.37.38-.84.52-1.06.31s-.12-.7.25-1.08,1.63-1.36,1.86-1.15-.69,1.53-1.05,1.92"/><path class="cls-26" d="M226.06,110.28c-.36.39-.84.53-1.06.32s-.11-.7.25-1.09,1.64-1.35,1.86-1.14-.68,1.53-1.05,1.91"/><path class="cls-26" d="M219.35,113c-.36.38-.84.52-1.06.31s-.11-.69.25-1.08,1.63-1.36,1.86-1.15-.68,1.54-1.05,1.92"/><path class="cls-26" d="M221.37,107.09c-.36.39-.84.53-1.06.32s-.11-.7.25-1.08,1.63-1.36,1.85-1.15-.67,1.53-1,1.91"/><path class="cls-26" d="M218.36,101.65c-.37.38-.84.52-1.07.31s-.11-.7.26-1.08,1.63-1.36,1.85-1.15-.68,1.53-1,1.92"/><path class="cls-26" d="M230.06,113.56c-.36.38-.84.52-1.06.31s-.12-.7.25-1.08,1.63-1.36,1.86-1.15-.69,1.53-1.05,1.92"/><path class="cls-26" d="M224.18,100.43c-.36.38-.84.52-1.06.31s-.11-.69.25-1.08,1.64-1.36,1.86-1.15-.68,1.53-1,1.92"/><path class="cls-31" d="M186.27,93.11c5.58,7.09,8.31,21,2,26s-19.17-1-24.76-8.06-2.76-12.9,3.51-17.84,13.63-7.15,19.22-.06"/><path class="cls-32" d="M166.37,93.28l-3,3.07a.33.33,0,0,0,.37.53l2.73-1.25A.33.33,0,0,1,167,96l.79,2.67a.33.33,0,0,0,.62.17l.41-4.14a.34.34,0,0,1,.38-.18l3.44.88a.33.33,0,0,0,.36-.48l-1.35-2.38a.32.32,0,0,1,0-.37l2.13-2.48a.33.33,0,0,0-.39-.51L169.26,91l-.06,0-2.8,2.2,0,0"/><path class="cls-32" d="M169.39,94.06a.76.76,0,0,1-.66-.36c-.11-.17-2.6-4-6-2.7a.78.78,0,1,1-.54-1.47c3.65-1.35,6.72,1.59,7.83,3.33a.79.79,0,0,1-.24,1.08.73.73,0,0,1-.42.12"/><path class="cls-26" d="M181.26,95.44c.34.4.43.89.2,1.09s-.71,0-1.05-.37-1.17-1.77-.94-2,1.45.85,1.79,1.25"/><path class="cls-26" d="M177.23,99.32c.35.4.43.89.2,1.09s-.71,0-1.05-.37-1.17-1.77-.94-2,1.45.85,1.79,1.25"/><path class="cls-26" d="M172.17,101.89c.35.4.43.89.2,1.09s-.7,0-1.05-.37-1.17-1.77-.94-2,1.45.84,1.79,1.25"/><path class="cls-26" d="M168.49,106.21c.34.4.43.89.2,1.09s-.71,0-1.05-.37-1.18-1.77-.94-2,1.45.84,1.79,1.25"/><path class="cls-26" d="M182.6,100.93c.34.41.43.89.19,1.09s-.7,0-1-.37-1.17-1.77-.93-2,1.44.85,1.79,1.25"/><path class="cls-26" d="M178.91,105.25c.35.4.43.89.2,1.09s-.71,0-1.05-.37-1.17-1.77-.94-2,1.45.85,1.79,1.25"/><path class="cls-26" d="M183.85,107c.35.41.43.9.2,1.1s-.71,0-1.05-.37-1.17-1.77-.94-2,1.45.85,1.79,1.25"/><path class="cls-26" d="M185.8,114c.34.41.43.9.19,1.1s-.7,0-1-.38-1.18-1.77-.94-2,1.45.85,1.79,1.25"/><path class="cls-26" d="M180.17,111.34c.34.41.43.89.2,1.09s-.71,0-1.05-.37-1.18-1.77-.94-2,1.45.85,1.79,1.25"/><path class="cls-26" d="M174.43,113.74c.34.41.43.9.19,1.09s-.7,0-1-.37-1.18-1.77-.94-2,1.44.85,1.79,1.25"/><path class="cls-26" d="M187.54,103.41c.35.4.43.89.2,1.09s-.7,0-1.05-.37-1.17-1.77-.94-2,1.45.85,1.79,1.25"/><path class="cls-26" d="M173.85,107.82c.34.4.43.89.2,1.09s-.71,0-1.05-.37-1.17-1.77-.94-2,1.45.84,1.79,1.25"/><path class="cls-18" d="M61.26,110c16.37,6.7,31.63,11.27,49.21,13.81,22.79,3.74,39.41-3,39.73-19,0-.55-.93-1.28-1.47-1.08-12.74,4.72-56,4.48-87.47-.63Z"/><path class="cls-4" d="M60.83,101.31a18.34,18.34,0,0,1,5.32,1.16c4.52-2.93,10.77-7,12.38-8.06a24.56,24.56,0,0,1-2.59,6.9,23.2,23.2,0,0,1-4.32,5.18,5.33,5.33,0,0,1-3.45,1.73,8.45,8.45,0,0,1,1.93,1.23c2.46,3,6,8.88,2.39,14.31l-7.36-11.88a15.73,15.73,0,0,1-4.3-1.07,4.75,4.75,0,0,1,0-9.5Z"/><path class="cls-19" d="M144.13,110s-6.9,17.26-66.46,1.72C77.67,111.67,139.81,134.12,144.13,110Z"/><path class="cls-33" d="M26.8,55.56S-.14,60.83,0,84.78,14.68,117,30.65,120,62,113.58,67.57,103.88c4.74-8.26,5.56-30.93-2.14-40.2S36.92,52.85,26.8,55.56"/><path class="cls-34" d="M50.94,76.65A30.26,30.26,0,0,0,39.63,80.9c-3.43,2.36-5.72,6.18-7.28,10-3.73,9-3.71,19.33-1.71,29.12h0c16,3,31.36-6.41,36.92-16.11,4-6.89,5.17-23.77,1-34.57-4.87,4.52-10.94,6-17.64,7.34"/><path class="cls-34" d="M22.19,66a11.13,11.13,0,0,0,8.08,2.18c4.65-.66,13-4.75,13.59-5.89s-3.14-3.9-7.7-4-12.07,2.37-13.4,3.42S20.64,65,22.19,66"/><path class="cls-35" d="M30.22,67.72a8.08,8.08,0,0,0,3.75-1s-.61-5-2-5.27a3.1,3.1,0,0,0-2.9,1.19c-.24.47.48,3.66,1.14,5"/><path class="cls-36" d="M55,73.66s-8.94-.57-13.69,9-.81,22.93,3.64,29.24,11.28,14.95,26.25,15.81,18.39-3.62,20.19-4a3.44,3.44,0,0,0,2.57-1.61c.57-.67,8.84-6.94,10.36-13.31S108.1,87.06,98.69,77,75.88,62.07,71.51,65.4C69.43,67,68.1,68.07,67,68.85a27.43,27.43,0,0,1-12,4.81"/><path class="cls-37" d="M55.07,74.61c-4,0-8,1.81-10.45,9.13-3.43,10.14,4.79,24.82,9.79,30.76,12.23,14.54,33.16,8.37,35,8s2.85.5,3.56-.57c.49-.72,9.17-7.1,10.69-13.47S108.1,87.06,98.69,77,75.88,62.07,71.51,65.4C67.14,68,70.17,79,69.07,79.73s-7.37-5-14-5.12"/><path class="cls-35" d="M69.68,80.2a1.27,1.27,0,0,0-.75.89c-.47,1.88-1.9,8.4-.29,12.74,2.16,5.82,10.52,12.45,14.66,11.24S87.41,92.62,84,86.7c-2.25-3.86-11.1-7.75-14.28-6.5"/><path class="cls-38" d="M76.68,84.48c-.62-.39-1.43-.52-2.06-.89-.2-.11-.31.1-.11.23a5.69,5.69,0,0,0,2,1c.18,0,.33-.25.16-.35"/><path class="cls-38" d="M80.29,88.14a14.66,14.66,0,0,1-2.56-.39,5.41,5.41,0,0,1-1.88-1.26c-.15-.14-.28,0-.17.12a5.16,5.16,0,0,0,4.6,2c.27,0,.26-.43,0-.47"/><path class="cls-38" d="M75.19,94.82c-.11-.21-.44-.29-.64-.42a2.25,2.25,0,0,1-.66-.64c-.13-.18-.26-.12-.16.08a3.16,3.16,0,0,0,.49.72,1.21,1.21,0,0,0,.65.47c.14,0,.39-.07.32-.21"/><path class="cls-38" d="M79.92,93.1c-.8-.58-1.85-.86-2.68-1.43a19.8,19.8,0,0,1-2.37-1.91c-.18-.18-.34-.08-.19.12,1.17,1.49,3.07,3.39,5,3.76a.31.31,0,0,0,.24-.54"/><path class="cls-38" d="M82.41,101.26A35.52,35.52,0,0,1,77.27,99a26.71,26.71,0,0,1-4.74-3.65c-.17-.17-.28,0-.12.19,2.51,2.9,6,5.6,9.81,6.37a.35.35,0,0,0,.19-.67"/><path class="cls-38" d="M84.49,95.07c-.27.08-.41.44-.61.71a4,4,0,0,1-.77.64c-.2.13-.1.29.12.2a3.48,3.48,0,0,0,.9-.56c.22-.19.61-.47.63-.77a.2.2,0,0,0-.27-.22"/><path class="cls-38" d="M84.32,90.44a3.39,3.39,0,0,1-2,1.48c-.22,0-.12.22.11.18a2.84,2.84,0,0,0,2.28-1.42c.1-.23-.23-.45-.39-.24"/><path class="cls-38" d="M80.81,96.6a18.87,18.87,0,0,1-3.92-1c-.25-.11-.36.07-.14.2a8.46,8.46,0,0,0,4,1.24c.29,0,.27-.43,0-.48"/><path class="cls-38" d="M69.41,85.73c-.07-.28-.24-.27-.23,0a2.34,2.34,0,0,0,.19.86,1.46,1.46,0,0,0,.44.71c.13.08.37,0,.33-.18s-.67-1.14-.73-1.41"/><path class="cls-38" d="M69.9,90.43c-.15-.29-.36-.59-.5-.89s-.33-.15-.26.13a4.3,4.3,0,0,0,.37,1,2,2,0,0,0,.52.79.21.21,0,0,0,.34-.19c-.06-.3-.34-.54-.47-.82"/><path class="cls-38" d="M73.77,82.15a3.18,3.18,0,0,0-1.28-.46c-.2,0-.28.07-.08.15.41.14.87.49,1.22.64.17.08.29-.22.14-.33"/><path class="cls-39" d="M123.67,131.46c0,2.23-2.72,4-6.07,4s-6.07-1.8-6.07-4,2.72-4,6.07-4,6.07,1.81,6.07,4"/><path class="cls-40" d="M120.26,129.91c0,.65-1.19.69-2.66.69s-2.67,0-2.67-.69,1.2-1.67,2.67-1.67,2.66,1,2.66,1.67"/><path class="cls-41" d="M131.46,136c0,2.23-2.71,4-6.07,4s-6.07-1.8-6.07-4,2.72-4,6.07-4,6.07,1.81,6.07,4"/><path class="cls-40" d="M128.06,134.49c0,.65-1.2.68-2.67.68s-2.66,0-2.66-.68,1.19-1.67,2.66-1.67,2.67,1,2.67,1.67"/><path class="cls-41" d="M117.25,136c0,2.23-2.72,4-6.08,4s-6.07-1.8-6.07-4,2.72-4,6.07-4,6.08,1.81,6.08,4"/><path class="cls-40" d="M113.84,134.49c0,.65-1.2.68-2.67.68s-2.66,0-2.66-.68,1.19-1.67,2.66-1.67,2.67,1,2.67,1.67"/><path class="cls-39" d="M147.92,140.4c0,2.22-2.72,4-6.07,4s-6.07-1.81-6.07-4,2.72-4,6.07-4,6.07,1.8,6.07,4"/><path class="cls-40" d="M144.52,138.85c0,.65-1.2.68-2.67.68s-2.66,0-2.66-.68,1.19-1.68,2.66-1.68,2.67,1,2.67,1.68"/><path class="cls-41" d="M160.82,146.25c0,2.23-2.72,4-6.07,4s-6.08-1.8-6.08-4,2.72-4,6.08-4,6.07,1.81,6.07,4"/><path class="cls-40" d="M157.41,144.7c0,.65-1.19.69-2.66.69s-2.67,0-2.67-.69,1.2-1.67,2.67-1.67,2.66,1,2.66,1.67"/><path class="cls-41" d="M124.9,147.53c0,2.22-2.71,4-6.07,4s-6.07-1.81-6.07-4,2.72-4,6.07-4,6.07,1.8,6.07,4"/><path class="cls-40" d="M121.5,146c0,.65-1.2.68-2.67.68s-2.66,0-2.66-.68,1.19-1.67,2.66-1.67,2.67,1,2.67,1.67"/><path class="cls-19" d="M161.15,126.28a4.55,4.55,0,1,1-7.21,5.56c-1.54-2-.47-4,1.52-5.48S159.61,124.29,161.15,126.28Z"/><path class="cls-4" d="M141.6,131a4.55,4.55,0,0,1,5.41-7.32c2,1.49,1.54,3.67,0,5.69S143.62,132.46,141.6,131Z"/><path class="cls-18" d="M157.17,131.77a4.56,4.56,0,1,1-9.11,0c0-2.51,2-3.41,4.55-3.41S157.17,129.26,157.17,131.77Z"/><path class="cls-19" d="M170.08,119.9a4.55,4.55,0,1,1-7.21,5.56c-1.54-2-.47-3.95,1.52-5.48S168.55,117.91,170.08,119.9Z"/><path class="cls-4" d="M182.74,131.66a4.55,4.55,0,1,1,9.09-.6c.16,2.51-1.81,3.54-4.32,3.71S182.9,134.17,182.74,131.66Z"/><path class="cls-18" d="M177.59,134.33a4.56,4.56,0,0,1-9.11,0c0-2.52,2-3.42,4.55-3.42S177.59,131.81,177.59,134.33Z"/><path class="cls-42" d="M72.47,138a4.41,4.41,0,0,1,1.85,1.3c.45.53.2.94.36,1.61.2.84.74,1.95.42,2.81a3.75,3.75,0,0,1-1.46,2,5.36,5.36,0,0,1-3.08.84,4.46,4.46,0,0,1-1.18-.26c-1.12-.42-1.29-1.13-1.77-2.12a3.43,3.43,0,0,1-.33-3c.39-1.05.6-2.42,1.51-2.92a5.57,5.57,0,0,1,2.06-.87C71.43,137.39,71.9,137.81,72.47,138Z"/><path class="cls-43" d="M74.21,141.93c-.48-.34-.75-1.17-1.34-1.2-.81,0-1-1.93-1.6-2.42-.76-.64-2.19,1.34-3.18,1.43-.27,0,0,.4.21.4a3.28,3.28,0,0,1,2,.58c.41.29.64.75,1,1a1.24,1.24,0,0,0,.69.23,4.63,4.63,0,0,1,2,.44c.46.27.49-.27.16-.5"/><path class="cls-44" d="M93.68,132.92a4.46,4.46,0,0,1,1.85,1.29c.45.53.19.95.36,1.62.2.83.73,1.94.41,2.81a3.69,3.69,0,0,1-1.46,2,5.22,5.22,0,0,1-3.08.84,4.55,4.55,0,0,1-1.18-.26c-1.12-.42-1.28-1.12-1.77-2.12a3.43,3.43,0,0,1-.33-3c.39-1,.61-2.42,1.51-2.91a5.45,5.45,0,0,1,2.07-.87C92.63,132.29,93.1,132.7,93.68,132.92Z"/><path class="cls-43" d="M95.42,136.83c-.48-.34-.76-1.17-1.34-1.21-.82-.05-1-1.92-1.6-2.42-.77-.64-2.2,1.35-3.18,1.43-.27,0,0,.41.21.4a3.21,3.21,0,0,1,2,.59c.41.29.64.75,1,1a1.35,1.35,0,0,0,.69.23,4.36,4.36,0,0,1,2,.44c.46.26.49-.27.17-.5"/><path class="cls-42" d="M62.17,137.34A4.36,4.36,0,0,1,64,138.63c.45.53.2,1,.36,1.62.2.83.74,1.94.42,2.81a3.72,3.72,0,0,1-1.46,2,5.29,5.29,0,0,1-3.08.84,4.46,4.46,0,0,1-1.18-.26c-1.12-.42-1.29-1.12-1.77-2.12a3.43,3.43,0,0,1-.33-3c.39-1.05.6-2.42,1.51-2.91a5.43,5.43,0,0,1,2.06-.88C61.12,136.71,61.59,137.12,62.17,137.34Z"/><path class="cls-43" d="M63.9,141.24c-.48-.33-.75-1.16-1.34-1.2-.81,0-1-1.92-1.59-2.42-.77-.64-2.2,1.35-3.19,1.43-.26,0,0,.41.22.4a3.21,3.21,0,0,1,2,.59c.41.29.64.74,1,1a1.32,1.32,0,0,0,.69.23,4.36,4.36,0,0,1,2,.44c.46.26.49-.28.16-.51"/><path class="cls-42" d="M80.61,131.76a4.38,4.38,0,0,1,1.46,1.72c.29.63-.06,1-.07,1.65,0,.86.21,2.07-.32,2.83a3.71,3.71,0,0,1-1.94,1.6,5.34,5.34,0,0,1-3.19,0,4.39,4.39,0,0,1-1.07-.56c-1-.69-1-1.41-1.17-2.5a3.43,3.43,0,0,1,.46-3c.65-.91,1.21-2.18,2.21-2.43a5.49,5.49,0,0,1,2.22-.31C79.76,130.88,80.11,131.4,80.61,131.76Z"/><path class="cls-43" d="M81.29,136c-.38-.45-.43-1.32-1-1.51-.77-.26-.48-2.12-.92-2.75-.58-.82-2.47.74-3.45.57-.26,0-.07.39.11.44a3.21,3.21,0,0,1,1.79,1.08c.33.39.43.89.74,1.27a1.23,1.23,0,0,0,.61.4,4.47,4.47,0,0,1,1.82.94c.38.37.54-.14.29-.44"/><path class="cls-45" d="M40.21,134.12c0,.71,2.71,1.28,6.06,1.28s4.15-.57,4.15-1.28-.8-2.55-4.15-2.55S40.21,133.42,40.21,134.12Z"/><path class="cls-46" d="M56.16,128.7c0,.44-1.7.8-3.79.8s-2.59-.36-2.59-.8.5-1.6,2.59-1.6S56.16,128.26,56.16,128.7Z"/><path class="cls-46" d="M43.4,137.31c0,.71-2.72,1.28-6.07,1.28s-4.14-.57-4.14-1.28.8-2.55,4.14-2.55S43.4,136.61,43.4,137.31Z"/><path class="cls-46" d="M65.73,132.85c0,.7-2.71,1.27-6.06,1.27s-4.15-.57-4.15-1.27.8-2.56,4.15-2.56S65.73,132.14,65.73,132.85Z"/><path class="cls-46" d="M32.55,127.74c0,.71,2.71,1.28,6.06,1.28s4.15-.57,4.15-1.28-.8-2.55-4.15-2.55S32.55,127,32.55,127.74Z"/><path class="cls-45" d="M37.65,132.85c0,.7-2.71,1.27-6.06,1.27s-4.15-.57-4.15-1.27.8-2.56,4.15-2.56S37.65,132.14,37.65,132.85Z"/><path class="cls-46" d="M55.52,126c0,.57,2.21,1,4.93,1s3.37-.46,3.37-1-.65-2.08-3.37-2.08S55.52,125.41,55.52,126Z"/><path class="cls-42" d="M91.15,142.84a5.22,5.22,0,0,1-.68,2.58c-.4.72-1,.61-1.65,1.07-.84.57-1.85,1.62-2.95,1.62a4.38,4.38,0,0,1-2.87-.78,6.24,6.24,0,0,1-2.21-3.08,5.05,5.05,0,0,1-.19-1.41c0-1.42.71-1.9,1.62-2.84a4.06,4.06,0,0,1,3.25-1.63c1.32,0,2.93-.32,3.86.48a6.56,6.56,0,0,1,1.82,1.93C91.42,141.41,91.15,142.11,91.15,142.84Z"/><path class="cls-43" d="M87.52,146.38c.18-.67,1-1.32.78-2-.28-.92,1.73-1.91,2-2.77.39-1.12-2.41-1.89-2.91-3-.13-.29-.43.2-.35.4a3.91,3.91,0,0,1,.18,2.48c-.16.58-.57,1-.73,1.59a1.48,1.48,0,0,0,0,.86,5.18,5.18,0,0,1,.33,2.41c-.1.61.51.43.63,0"/><path class="cls-42" d="M99.37,138.91a4.39,4.39,0,0,1,1.85,1.29c.45.53.2,1,.36,1.62.2.83.74,1.94.42,2.81a3.72,3.72,0,0,1-1.46,2,5.33,5.33,0,0,1-3.08.84,4.46,4.46,0,0,1-1.18-.26c-1.12-.42-1.29-1.12-1.77-2.12a3.43,3.43,0,0,1-.33-3c.38-1.05.6-2.42,1.51-2.91a5.59,5.59,0,0,1,2.06-.88C98.33,138.28,98.8,138.69,99.37,138.91Z"/><path class="cls-43" d="M101.11,142.82c-.48-.34-.75-1.17-1.34-1.21-.82-.05-1-1.92-1.6-2.42-.77-.64-2.2,1.35-3.18,1.43-.27,0,0,.41.21.4a3.22,3.22,0,0,1,2,.59c.41.29.64.74,1,1a1.29,1.29,0,0,0,.69.23,4.41,4.41,0,0,1,2,.44c.45.26.48-.28.16-.5"/></g></g></svg>