<svg id="Layer_1" data-name="Layer 1" xmlns="http://www.w3.org/2000/svg" xmlns:xlink="http://www.w3.org/1999/xlink" viewBox="0 0 228.88 198.74"><defs><style>.cls-1{fill:none;}.cls-2{fill:#f08732;}.cls-3{fill:#805733;}.cls-4{fill:#5d5755;}.cls-5{fill:#43235e;}.cls-6{fill:#de5972;}.cls-7{fill:#8b1a4b;}.cls-8{fill:#241f20;}.cls-9{fill:#fff;}.cls-10{fill:#322317;}.cls-11{fill:#8f531e;}.cls-12{fill:#905818;}.cls-13{fill:#5e3a19;}.cls-14{fill:#7c4a1f;}.cls-15{fill:#fbe6bc;}.cls-16{fill:#46195f;}.cls-17{fill:#e40046;}.cls-18{fill:#e20613;}.cls-19{fill:#a61680;}.cls-20{fill:#fae4bb;}.cls-21{fill:#87c1a1;}.cls-22{fill:#2b2523;}.cls-23{fill:#58321e;}.cls-24{fill:#fbf6e1;}.cls-25{fill:#f8c432;}.cls-26{fill:#bacf32;}.cls-27{fill:#81cff4;}.cls-28{fill:#878587;}.cls-29{fill:#e1dfdb;}.cls-30{fill:#97b421;}.cls-31{fill:#ba2528;}.cls-32{fill:#db453a;}.cls-33{fill:#009252;}.cls-34{fill:#409c64;}.cls-35{fill:#e4e4e5;}.cls-36{fill:#472916;}.cls-37{fill:#bce3f9;}.cls-38{fill:#72ba6f;}.cls-39{fill:#e2e9ae;}.cls-40{fill:#ffe69d;}.cls-41{fill:#fff2cd;}.cls-42{fill:#cad864;}.cls-43{fill:#009657;}.cls-44{fill:#ed7203;}.cls-45{fill:#c01f21;}.cls-46{fill:#e84f17;}.cls-47{fill:#c8e7fa;}.cls-48{fill:#c61f23;}.cls-49{fill:#e8511b;}.cls-50{clip-path:url(#clip-path);}.cls-51{fill:#c9e8fb;}.cls-52{fill:#ca462b;}.cls-53{fill:#ec6f23;}.cls-54{fill:#e8521e;}.cls-55{fill:#ec7027;}.cls-56{clip-path:url(#clip-path-2);}.cls-57{fill:#f08630;}</style><clipPath id="clip-path"><path class="cls-1" d="M75.26,136.65l-3,.28A.38.38,0,0,0,72,137a.49.49,0,0,0-.35.43,1.24,1.24,0,0,0,.45.83l.35.27a1.63,1.63,0,0,0,1,.3l3.38-.35c.31,0,.57-.26.57-.5a.75.75,0,0,0-.31-.52l-.81-.58a2,2,0,0,0-1-.25h-.11"/></clipPath><clipPath id="clip-path-2"><path class="cls-1" d="M78.8,137.14l-3,.28a.44.44,0,0,0-.23.08.5.5,0,0,0-.34.44,1.24,1.24,0,0,0,.45.82L76,139a1.61,1.61,0,0,0,1,.3l3.38-.36a.59.59,0,0,0,.57-.49.76.76,0,0,0-.31-.53l-.81-.58a2.16,2.16,0,0,0-1-.24H78.8"/></clipPath></defs><title>ilustra_new</title><path class="cls-2" d="M108.23,27A28.73,28.73,0,1,0,137,55.7,28.72,28.72,0,0,0,108.23,27M51.71,125.72v4.9h109.1v-4.9H85.86c.14-.08.2-.17.2-.26,0-.67-3.82-1.25-9.23-1.48l0,0a2,2,0,0,0-1-.25h-.11l-1.94.18h-.34a44.75,44.75,0,0,0-5-2.55A4.2,4.2,0,0,0,67,121c-1.18,0-1.45.82-1,1.18s-.54.55-.46,1.2.83.2,1.19.55c-1,0-1.92.08-2.8.14a55.24,55.24,0,0,1-15-6.59C33.39,108,31,101,30.92,100.82A2,2,0,0,0,29,99.36a2,2,0,0,0-.54.07A2,2,0,0,0,27,101.92c.24.85,2.79,8.65,19.73,19A65.46,65.46,0,0,0,56,125.72h-4.3m55.55,56.65a91.19,91.19,0,1,1,91.19-91.19,91.19,91.19,0,0,1-91.19,91.19"/><path class="cls-3" d="M31.77,100.28a2.16,2.16,0,0,0,2.16-2.16v-7a2.16,2.16,0,0,0-4.32,0v7a2.16,2.16,0,0,0,2.16,2.16"/><path class="cls-4" d="M1.33,196.66S9.6,151.39,18.39,151c3.19-.16,7.49-.21,11.68-.2s8.48,0,11.67.2c8.79.44,17.06,45.71,17.06,45.71H56.06c.13.11-4.72-20.26-10.1-32.84-3.6-8.44-6-9.77-6-9.77s-4.72.14-9.92.18h0c-5.2,0-9.91-.18-9.91-.18s-2.38,1.33-6,9.77c-5.38,12.58-10.23,33-10.1,32.84Z"/><path class="cls-5" d="M71.75,194.25l-.3,0a2.18,2.18,0,0,1-1.85-2.45c1.16-8.46,3-31.85-2.19-38.29s-24.8-8.77-31.92-9.13a2.17,2.17,0,0,1,.23-4.33c2.81.14,27.72,1.65,35.06,10.73s3.57,38.31,3.12,41.61a2.17,2.17,0,0,1-2.15,1.88"/><path class="cls-5" d="M66.72,194.21a1.72,1.72,0,0,1-.39,0,2.12,2.12,0,0,1-1.71-2.47C66.14,183.39,69,160.43,64,154s-25.75-6.47-33.35-6a2.13,2.13,0,0,1-.27-4.25c3-.19,29.79-1.58,37,7.62s2.06,37.83,1.47,41.08a2.14,2.14,0,0,1-2.09,1.75"/><path class="cls-6" d="M68.82,129.11c-4.69-.47-12.46-2.24-22.07-8.14-16.94-10.4-19.49-18.2-19.73-19a2,2,0,0,1,3.9-1.1c0,.18,2.47,7.2,17.94,16.69,14.38,8.82,24.2,7.66,24.3,7.65a2,2,0,0,1,.56,4,21.75,21.75,0,0,1-4.9,0"/><path class="cls-7" d="M40.08,140.71c0,4.21-4.3,7.3-9.45,7.3-5.89,0-8-3.09-8-7.3,0-6,1.48-13.71,1.48-20.65,0-4.23-.8-9-.8-15.57,0-3.6,1.72-6.39,5.85-7.49,1.31-.35,3.65,1.53,5,1.88,5.84,1.55,8,9.16,8,13.22,0,6.59-3.13,3.73-3.13,8,0,6.94,1.16,14.66,1.16,20.65"/><path class="cls-3" d="M43,77c0,9.18,2,15.54-10.8,15.54C24,92.53,19.27,85.16,19.27,77c0-9.18,1.36-17.35,12.93-17.35C42.64,59.64,43,68.81,43,77"/><path class="cls-8" d="M37.21,76.77a.81.81,0,1,0,.81-.72.76.76,0,0,0-.81.72"/><path class="cls-9" d="M42.73,85.39a10.21,10.21,0,0,1-5.88-1.59.32.32,0,0,1,.38-.51,34.56,34.56,0,0,0,5.82-.53c.18,0,0,2.13,0,2.31a.32.32,0,0,1-.32.32"/><path class="cls-6" d="M60.56,146.36c-4.38-1.74-11.36-5.59-19-13.92-13.41-14.66-13.71-22.86-13.7-23.75a2,2,0,0,1,4.05,0c0,.19.39,7.61,12.64,21,11.38,12.44,21.14,14,21.24,14a2,2,0,0,1-.57,4,22.16,22.16,0,0,1-4.69-1.41"/><path class="cls-10" d="M30.41,48.41c-.92.23-1.63.89-2.51,1.2-.38.13-1.42.38-1.72,0a2.23,2.23,0,0,1-.26-1.51c.14-.22,0-.17.31-.08.09,0,.17.1.26.14a1.28,1.28,0,0,0,.55.1,1.58,1.58,0,0,0,1-.5,1.23,1.23,0,0,0,.4-1c0-.15-.61-1.18-.77-1.13.35-.18.76-.54.37-.75a1.29,1.29,0,0,0-1.79,1,2.06,2.06,0,0,0,.22.88l0,0a3.5,3.5,0,0,0-.83-.27c-1.74-.32-4.38.86-3.8,3a10.32,10.32,0,0,1,.4,1.34c0,.09,0,.64-.1.68s-.47-.32-.55-.41c-.62-.8-.54-2-1.62-2.38-1.57-.59-4.05.9-4.4,2.49-.26,1.21.8,1.88,1.37,2.76a1.49,1.49,0,0,1,.3.8c0,.32-.21.53-.37.8a2.08,2.08,0,0,0-1.36.09,2.11,2.11,0,0,0-1.15,1,2.27,2.27,0,0,0,.09,1.58c.12.5-.07.68-.58.78-.36.07-.72.09-1.08.14a4,4,0,0,0-1.81.6c-.74.51-1.45,1.6-.87,2.48.41.62,1.17.62,1.77,1,.18.1.55.35.52.59s-1,.5-1.24.6c-1.1.48-2.25,1.56-1.86,2.88a1.51,1.51,0,0,0,1.13,1c.47.14,1.21.07,1.59.41.57.52-.24,1.2-.58,1.58a1.93,1.93,0,0,0-.61,1.58A1.71,1.71,0,0,0,11.77,73a1.53,1.53,0,0,0,.76.16,3.35,3.35,0,0,0,.44-.07.43.43,0,0,1,.45,0l.09.2c.24.33.35.67.71.91a1.42,1.42,0,0,0,.85.23,1.65,1.65,0,0,0,1.47-1,.32.32,0,0,0-.29-.48c-.45,0-1.1,0-1.33-.52a.7.7,0,0,1-.05-.32h0a1.32,1.32,0,0,0,.44-.18,1,1,0,0,0,.09-1.71c-.23-.21-.87-.65-.53-1,.19-.22.75,0,1-.06a1.63,1.63,0,0,0,.52-.15,8.63,8.63,0,0,1-.21,1.49A1.32,1.32,0,0,0,17,71.93a1.49,1.49,0,0,0,.5.08c0,.12.1.21.32.19a1.6,1.6,0,0,0,1.15-.59l.21-.12a.58.58,0,0,0,.32-.67.2.2,0,0,1,0-.08,1.72,1.72,0,0,0,.93-.87,6.39,6.39,0,0,0,.26-1.15,5.76,5.76,0,0,1,.66-1.22c.43-.78.65-1.66,1-2.46a7.61,7.61,0,0,1,1.43-2,7.51,7.51,0,0,1,4.41-2.16,10.36,10.36,0,0,0,2.47-.4,7.18,7.18,0,0,0,2.19-1.38,1.89,1.89,0,0,0,.45-2.4,2.05,2.05,0,0,0,.58-.18c.58-.29,1.18-1,.78-1.7a1.47,1.47,0,0,0-.76-.53c-.48-.2-.75-.3-.55-.86a5.7,5.7,0,0,0,.42-2.48,2.73,2.73,0,0,0-3.32-2.51"/><path class="cls-10" d="M34.22,57.62a3.65,3.65,0,0,0-1.7.85l-.2.21c-.77.23-1.52.49-2.26.76a4.21,4.21,0,0,0-3-.2A2.09,2.09,0,0,0,26,60.42c-.07.2-.11.46-.19.69-.33.14-.64.29-.95.45-.11,0-.22,0-.34,0a2.51,2.51,0,0,0-2.69,1.88c-.19.57-.28,1.17-.5,1.73-.34.87-.94,1-1.65,1.51a1.8,1.8,0,0,0-.87,1.5c0,.82.59,1.59.36,2.42-.34,1.25-1.81,1.9-2,3.27a3.25,3.25,0,0,0,.7,2.06,1.4,1.4,0,0,1,.1.16c0,.17,0,.33-.08.5l-.06.54a4.17,4.17,0,0,0-.85.41,1.87,1.87,0,0,0-.42,1.93c.3,1.25.79,2.47,1.18,3.69a.86.86,0,0,0,.35.44,1.63,1.63,0,0,1-.17.22,2.71,2.71,0,0,0-1,1.46,2.57,2.57,0,0,0,.25,1.68,2.66,2.66,0,0,0,.55.69c.19.17.71.36.82.55a1.46,1.46,0,0,1-.16,1c-.25.37-.36.27-.77.47a1.77,1.77,0,0,0-1,1.37c-.22,1.47,1.24,2.38,2.43,2.75,1.35.42,1.72-1,.38-1.43a.79.79,0,0,1-.54-1c.13-.38.42-.36.74-.48a1.59,1.59,0,0,0,.91-.85A2.13,2.13,0,0,0,20,87.23c-.45-.32-.82-.43-.87-1.06s.5-1,.95-1.5a1.55,1.55,0,0,0,.37-1.55.68.68,0,0,0,.16-.4c0-.64.07-1.28.1-1.92a11.75,11.75,0,0,0,1.24-1.58c.54-1.14.12-2.28.18-3.48a1.93,1.93,0,0,1,.58-1.48c.39-.28,1-.22,1.43-.51a2.5,2.5,0,0,0,1-2c.07-.86-.09-2,.42-2.71s1.82-.69,2.7-.76a5.3,5.3,0,0,0,2.66-.79,7.18,7.18,0,0,0,.93-.82c.27-.26.79-1,1.21-1.09s.89.55,1.16.69a4.84,4.84,0,0,0,1.57.52,4.72,4.72,0,0,0,3.11-.49c.1,0,.76-.35.85-.74.47-2.09-3.15-8-3.15-8a6.3,6.3,0,0,0-2.33,0"/><polygon class="cls-10" points="40.32 65.75 40.32 65.74 40.32 65.73 40.32 65.75"/><path class="cls-10" d="M39.66,58.38h0c-.12-.08-.29,0-.45-.09l-.61-.19a15.75,15.75,0,0,0-2.05-.51s1.6,6.33,2.34,8.37l.64-.22c.57-.21,2.35.55,2.46,0s1.78-4-2.33-7.36"/><path class="cls-3" d="M24.23,72.16s-3.41,0-3.54,2.87S24,78.2,24,78.2Z"/><path class="cls-11" d="M0,105s6.28,7.23,6.09,15S1,154.81,28.74,154.43s23.6-1.33,23.6-1.33,4-.95,4.37-3.24-4.18-3.49-8.94-3.8c-8.85-.57-34.18,4.47-34.06-24.17.08-19.54-10.08-18.83-10.84-18.83S-.18,102.87,0,105"/><path class="cls-12" d="M73.27,147.93,69,145.63l-.64,1.57,4.26,2.31a.82.82,0,0,0,1.15-.38,1,1,0,0,0-.51-1.2"/><path class="cls-12" d="M71.92,149.32l-3.53-1.88L67.75,149l3.54,1.89a.82.82,0,0,0,1.15-.39,1,1,0,0,0-.52-1.19"/><path class="cls-12" d="M70.05,150.48l-3.16-1.7-.64,1.57,3.16,1.71a.83.83,0,0,0,1.16-.39,1,1,0,0,0-.52-1.19"/><path class="cls-12" d="M73.43,145.87l-4.27-2.24-.64,1.58,4.27,2.24a.84.84,0,0,0,1.16-.38,1,1,0,0,0-.52-1.2"/><path class="cls-12" d="M69.92,144l-2.76-1.43a2.63,2.63,0,0,0-3.69,1.22l-.72,1.79a3.09,3.09,0,0,0,1.65,3.81l2.81,1.46Z"/><path class="cls-12" d="M68.72,141.46s-4.08.19-4.46,1.27c-.17.46,1.07,1.87,1.07,1.87l4.2-1.48a.81.81,0,0,0,.39-1.15,1,1,0,0,0-1.2-.51"/><path class="cls-8" d="M37.07,72.6a4.37,4.37,0,0,1,2.75.88.16.16,0,0,1-.21.25,4,4,0,0,0-2.53-.8,3.09,3.09,0,0,0-2.24.86.17.17,0,0,1-.23,0,.16.16,0,0,1,0-.23,3.26,3.26,0,0,1,2.48-1"/><polygon class="cls-13" points="74.62 192.55 69 192.55 69 198.15 84.33 198.15 74.62 192.55"/><polygon class="cls-13" points="74.51 189.84 68.52 189.84 69 194.02 74.51 194.02 74.51 189.84"/><polygon class="cls-14" points="69.74 192.77 64.12 192.77 64.12 198.37 79.45 198.37 69.74 192.77"/><polygon class="cls-14" points="69.62 190.05 63.63 190.05 64.12 194.24 69.62 194.24 69.62 190.05"/><path class="cls-15" d="M204.26,97.61s-12.93,6.81-11.11,11.13c.85,2,10.25-7.63,10.25-7.63l1.65-3.33"/><path class="cls-16" d="M137,55.7A28.72,28.72,0,1,1,108.23,27,28.72,28.72,0,0,1,137,55.7"/><path class="cls-9" d="M133.85,55.7a25.63,25.63,0,1,1-25.62-25.62A25.62,25.62,0,0,1,133.85,55.7"/><path class="cls-17" d="M110.93,55.7a2.7,2.7,0,1,1-2.7-2.69,2.7,2.7,0,0,1,2.7,2.69"/><path class="cls-17" d="M108.23,56.72a1,1,0,0,1-1-1V39.27a1,1,0,1,1,2,0V55.71a1,1,0,0,1-1,1"/><path class="cls-17" d="M114.56,44.05a1,1,0,0,1,1,0,1,1,0,0,1,.37,1.38l-6.14,10.65a1,1,0,1,1-1.75-1l6.13-10.65a1.09,1.09,0,0,1,.37-.37"/><path class="cls-18" d="M108.23,57.25a1.54,1.54,0,0,1-1-2.71v1.17a1,1,0,0,0,1.53.86l.18,0a1,1,0,0,0,.74-.32,1.56,1.56,0,0,1-1.44,1"/><path class="cls-18" d="M108.23,56.72a1,1,0,0,1-1-1V54.54a1.5,1.5,0,0,1,1-.38,1.24,1.24,0,0,1,.33,0l-.5.87a1,1,0,0,0,.37,1.38,1,1,0,0,0,.32.12,1,1,0,0,1-.52.15"/><path class="cls-18" d="M108.93,56.59l-.18,0a1,1,0,0,1-.32-.12,1,1,0,0,1-.37-1.38l.5-.87a1.55,1.55,0,0,1,1.21,1.51,1.5,1.5,0,0,1-.1.56,1,1,0,0,1-.74.32"/><path class="cls-19" d="M108.23,35.88a.68.68,0,0,1-.68-.67V31.27a.69.69,0,0,1,.68-.68.68.68,0,0,1,.67.68v3.94a.67.67,0,0,1-.67.67"/><path class="cls-19" d="M108.23,80.82a.69.69,0,0,1-.68-.68V76.2a.68.68,0,0,1,.68-.67.67.67,0,0,1,.67.67v3.94a.68.68,0,0,1-.67.68"/><path class="cls-19" d="M132.66,56.38h-3.94a.68.68,0,0,1,0-1.35h3.94a.68.68,0,1,1,0,1.35"/><path class="cls-19" d="M87.73,56.38H83.79a.68.68,0,0,1,0-1.35h3.94a.68.68,0,1,1,0,1.35"/><path class="cls-19" d="M98,38.63a.66.66,0,0,1-.58-.34l-2-3.41a.67.67,0,0,1,.24-.92.66.66,0,0,1,.92.25l2,3.41a.67.67,0,0,1-.24.92.72.72,0,0,1-.34.09"/><path class="cls-19" d="M120.45,77.54a.68.68,0,0,1-.59-.34l-2-3.41a.67.67,0,0,1,.25-.92.67.67,0,0,1,.92.25l2,3.41a.67.67,0,0,1-.25.92.66.66,0,0,1-.33.09"/><path class="cls-19" d="M126,46.13a.68.68,0,0,1-.59-.34.68.68,0,0,1,.25-.92l3.41-2a.68.68,0,0,1,.92.25.67.67,0,0,1-.24.92l-3.42,2a.66.66,0,0,1-.33.09"/><path class="cls-19" d="M87.07,68.6a.67.67,0,0,1-.34-1.26l3.41-2a.66.66,0,0,1,.92.25.67.67,0,0,1-.24.92l-3.42,2a.66.66,0,0,1-.33.09"/><path class="cls-19" d="M90.48,46.13a.69.69,0,0,1-.34-.09l-3.41-2a.67.67,0,0,1,.67-1.17l3.42,2a.67.67,0,0,1,.24.92.66.66,0,0,1-.58.34"/><path class="cls-19" d="M129.39,68.6a.69.69,0,0,1-.34-.09l-3.41-2a.68.68,0,0,1-.25-.92.67.67,0,0,1,.92-.25l3.42,2a.67.67,0,0,1,.24.92.66.66,0,0,1-.58.34"/><path class="cls-19" d="M118.47,38.63a.66.66,0,0,1-.33-.09.67.67,0,0,1-.25-.92l2-3.41a.67.67,0,0,1,1.17.67l-2,3.41a.68.68,0,0,1-.59.34"/><path class="cls-19" d="M96,77.54a.69.69,0,0,1-.34-.09.68.68,0,0,1-.25-.92l2-3.41a.66.66,0,0,1,.92-.25.67.67,0,0,1,.24.92l-2,3.41a.66.66,0,0,1-.58.34"/><path class="cls-4" d="M225.89,198.25s-8.27-45.26-17.06-45.71c-3.19-.16-7.49-.2-11.68-.19s-8.48,0-11.67.19c-8.79.45-17.06,45.71-17.06,45.71h2.73c-.12.12,4.73-20.26,10.11-32.84,3.6-8.43,6-9.76,6-9.76s4.72.13,9.91.18h0c5.2-.05,9.91-.18,9.91-.18s2.38,1.33,6,9.76c5.37,12.58,10.23,33,10.1,32.84Z"/><path class="cls-20" d="M162.11,124.92c4.77,0,12.78-1,23.07-6,18.13-8.76,21.49-16.36,21.82-17.19a2.05,2.05,0,0,0-3.82-1.51c-.07.17-3.22,7-19.78,15-15.38,7.43-25.17,5.26-25.26,5.23a2.05,2.05,0,0,0-1,4,22.73,22.73,0,0,0,4.94.44"/><path class="cls-15" d="M202.26,100.71a2.16,2.16,0,0,0,2.16-2.16v-7a2.16,2.16,0,1,0-4.31,0v9.14c0,1.19,1,0,2.15,0"/><path class="cls-21" d="M194,140.93c0,4.26,4.37,7.39,9.58,7.39,6,0,8.15-3.13,8.15-7.39,0-6.07-1.5-13.89-1.5-20.92,0-4.29.76-6.46.76-13.14,0-3.65-5.39-11.85-7.95-8.35-4,5.51-10.28,5.6-10.28,9.72,0,6.67,2.42,7.48,2.42,11.77,0,7-1.18,14.85-1.18,20.92"/><path class="cls-22" d="M162,195.16l.3,0a2.21,2.21,0,0,0,1.88-2.48c-1.18-8.57-3.07-32.26,2.21-38.79s25.13-8.88,32.34-9.25a2.2,2.2,0,0,0-.23-4.39c-2.85.15-28.08,1.69-35.52,10.88s-3.61,38.8-3.15,42.15a2.2,2.2,0,0,0,2.17,1.9"/><path class="cls-15" d="M189.11,80.2c2.18,9,1.74,15.78,14.32,12.75,8.12-2,11-10.33,9.06-18.37-2.18-9-5.45-16.76-16.85-14-10.28,2.47-8.47,11.59-6.53,19.64"/><path class="cls-22" d="M167.05,195.12a1.72,1.72,0,0,0,.39,0,2.15,2.15,0,0,0,1.73-2.51c-1.54-8.41-4.43-31.67.65-38.18s26.08-6.55,33.78-6.07a2.16,2.16,0,1,0,.27-4.31c-3.06-.19-30.17-1.59-37.45,7.73s-2.09,38.32-1.49,41.61a2.16,2.16,0,0,0,2.12,1.77"/><path class="cls-8" d="M194.76,78.61a.82.82,0,1,1-1-.51.76.76,0,0,1,1,.51"/><path class="cls-8" d="M191.37,88.41a10.42,10.42,0,0,0,5.41-3,.32.32,0,1,0-.49-.42,10,10,0,0,1-5.08,2.74.33.33,0,0,0-.24.39.34.34,0,0,0,.4.24"/><path class="cls-22" d="M211.75,140.93c0,4.26-2.18,7.39-8.15,7.39-5.21,0-9.58-3.13-9.58-7.39,0-.9,0-1.85.08-2.82h17.56c.05,1,.09,1.92.09,2.82"/><path class="cls-23" d="M207.12,62.57s.6,3.87-4.86,6.21a11.93,11.93,0,0,1-10.62-.31,5.28,5.28,0,0,1,.92-7.41c4-3.67,12.72-4.86,14.56,1.51"/><path class="cls-10" d="M208.26,81.19c-4.8-14.66-7.75-14.76-19-12.06a11.92,11.92,0,0,0-2.78,1c-.41-5.67,1-10.53,7.61-12.12,11.21-2.69,15.88,5.14,18.27,15.17.67,2.78,1.67,8.89-1.38,14.24"/><path class="cls-10" d="M189,75.73l-1.32-6.56.51,6.76-1.34.32c-1.93-8.65-2-16.46,8.89-19.08C202.57,55.53,206,69,205.85,71.7Z"/><path class="cls-15" d="M208.26,82.48s3.19-1.2,2.32-3.92-4.17-1.85-4.17-1.85Z"/><path class="cls-10" d="M220.55,71c-.16-.94-.75-1.71-1-2.61-.1-.4-.26-1.45.15-1.72a2.25,2.25,0,0,1,1.53-.12c.2.15.17,0,.05.31,0,.09-.11.16-.15.25a1,1,0,0,0-.15.54,1.63,1.63,0,0,0,.4,1.07,1.24,1.24,0,0,0,1,.48c.15,0,1.22-.5,1.19-.67.15.36.47.81.71.43a1.27,1.27,0,0,0-.86-1.86,2,2,0,0,0-.89.13l0,0a3.86,3.86,0,0,0,.34-.81c.47-1.7-.48-4.43-2.63-4a7.84,7.84,0,0,1-1.36.29c-.1,0-.64,0-.67-.15s.35-.45.46-.52c.84-.55,2-.37,2.51-1.41.72-1.51-.56-4.11-2.12-4.6-1.17-.36-1.93.64-2.86,1.13a1.63,1.63,0,0,1-.82.24c-.33,0-.51-.26-.77-.44a2.1,2.1,0,0,0,0-1.36,2.06,2.06,0,0,0-.91-1.23,2.2,2.2,0,0,0-1.58-.05c-.51.07-.68-.13-.73-.65,0-.36,0-.72,0-1.09A4.07,4.07,0,0,0,211,50.7c-.45-.78-1.47-1.59-2.4-1.08-.65.36-.72,1.12-1.1,1.68-.11.17-.39.52-.63.47s-.41-1-.49-1.29c-.38-1.14-1.36-2.38-2.71-2.1a1.53,1.53,0,0,0-1.12,1c-.18.46-.17,1.2-.55,1.55-.56.53-1.17-.34-1.52-.71a2,2,0,0,0-1.52-.74,1.69,1.69,0,0,0-1.3.84,1.61,1.61,0,0,0-.23.74c0,.15,0,.29,0,.44a.44.44,0,0,1-.08.45l-.21.07a2.91,2.91,0,0,0-1,.63,1.46,1.46,0,0,0-.31.83,1.68,1.68,0,0,0,.86,1.55c.25.12.46,0,.5-.25.07-.45.15-1.09.64-1.28a.74.74,0,0,1,.33,0v0a1.2,1.2,0,0,0,.15.45,1,1,0,0,0,1.69.24c.23-.21.72-.81,1.09-.44.21.21,0,.75,0,1.05a1.62,1.62,0,0,0,.11.53,9.06,9.06,0,0,1-1.47-.33,1.31,1.31,0,0,0-1.47.58,1.28,1.28,0,0,0-.13.49c-.12,0-.21.08-.22.3a1.62,1.62,0,0,0,.49,1.2l.11.22c.12.23.35.46.63.37l.09,0a1.67,1.67,0,0,0,.78,1,7.46,7.46,0,0,0,1.13.37,5.48,5.48,0,0,1,1.16.75c.74.5,1.59.79,2.36,1.24a7.32,7.32,0,0,1,1.9,1.6,7.45,7.45,0,0,1,1.77,4.57,10.43,10.43,0,0,0,.19,2.5,7.41,7.41,0,0,0,1.19,2.3,1.92,1.92,0,0,0,2.36.66,1.85,1.85,0,0,0,.13.59c.24.6.93,1.26,1.62.92a1.52,1.52,0,0,0,.6-.72c.24-.45.36-.71.9-.47a5.6,5.6,0,0,0,2.43.64A2.74,2.74,0,0,0,220.55,71"/><path class="cls-9" d="M166.72,84.73l-7.4,16.47a.44.44,0,0,0,.21.56l6.94,3.63a.44.44,0,0,0,.58-.15l9.29-15.48a.15.15,0,0,0-.06-.2l-9.36-4.89a.14.14,0,0,0-.2.06"/><path class="cls-24" d="M167.2,85.7l-7,15.21a.38.38,0,0,0,.16.51l5.87,3.07a.39.39,0,0,0,.51-.16l8.51-14.41Z"/><path class="cls-25" d="M173.65,92.14l-6.94,11.7a.39.39,0,0,1-.52.17l-5.37-2.8a.4.4,0,0,1-.15-.53l4.64-10.08Z"/><path class="cls-20" d="M164.09,92.16,168,95.32l-1.39,1.6-3.92-3.16a1.06,1.06,0,0,1,1.39-1.6"/><path class="cls-20" d="M162.9,94.25l3.57,2.85-1.39,1.6-3.56-2.85a1.06,1.06,0,0,1-.11-1.5,1,1,0,0,1,1.49-.1"/><path class="cls-20" d="M161.72,96.33l3.21,2.54-1.39,1.6-3.21-2.54a1.06,1.06,0,0,1-.11-1.49,1.07,1.07,0,0,1,1.5-.11"/><path class="cls-20" d="M165.28,90.08l4.28,3.46-1.39,1.6-4.28-3.46a1.06,1.06,0,0,1-.1-1.5,1,1,0,0,1,1.49-.1"/><path class="cls-20" d="M169.51,93.52l2.74,2.25a3.4,3.4,0,0,1,.34,4.78L171,102.36a3.4,3.4,0,0,1-4.78.34l-2.8-2.3Z"/><path class="cls-20" d="M193.79,125c-9,0-18.23-13.52-22.3-19.49-.38-.56-.8-1.18-1.05-1.52a2.18,2.18,0,0,1,.64-3.84,2.56,2.56,0,0,1,2.85,1.33c.28.39.65.93,1.11,1.61a91.37,91.37,0,0,0,9,11.6c4.22,4.4,7.87,6.45,10.56,5.94,3.23-.62,5.9-5.2,7.7-13.25a2.15,2.15,0,1,1,4.19.94c-2.27,10.13-5.9,15.54-11.09,16.53A9,9,0,0,1,193.79,125Zm-19.95-22.75Zm0,0h0Z"/><path class="cls-26" d="M201.1,107.05c.15-.77.09-3.74,2.36-4.36,1.91-.52,3-.7,3.82,1.94a12.57,12.57,0,0,1,.14,5.45l-6.28-.37Z"/><path class="cls-9" d="M84.62,108l.94,18a.45.45,0,0,0,.45.4l7.83,0a.43.43,0,0,0,.45-.39l1.18-18a.14.14,0,0,0-.14-.15l-10.56-.07a.15.15,0,0,0-.15.15"/><path class="cls-24" d="M85.49,108.62l.76,16.72a.39.39,0,0,0,.37.38l6.62,0a.38.38,0,0,0,.38-.37l1-16.71Z"/><path class="cls-25" d="M94.17,113.92,93.34,125a.4.4,0,0,1-.38.39l-6.06,0a.4.4,0,0,1-.37-.4l-.48-11.09Z"/><path class="cls-27" d="M153.72,125.82c0,.61-5.71,1.1-12.77,1.1s-12.76-.49-12.76-1.1,5.71-1.09,12.76-1.09,12.77.49,12.77,1.09"/><path class="cls-27" d="M84.23,126.35c0,.6-5.72,1.09-12.77,1.09s-12.77-.49-12.77-1.09,5.72-1.1,12.77-1.1,12.77.49,12.77,1.1"/><path class="cls-11" d="M228.87,106.26s-6.28,7.23-6.09,15,5.14,34.82-22.64,34.44-23.59-1.33-23.59-1.33-4-1-4.38-3.24,4.18-3.5,8.94-3.8c8.85-.57,34.18,4.47,34.06-24.17-.08-19.54,10.09-18.84,10.85-18.84s3-.19,2.85,1.91"/><path class="cls-28" d="M58.82,118.93c4.47.49,7.1,3.73,7.55,5l.74.21c-.66-4-5.91-5.94-7.62-6.59-2-.74-3.09.89-.67,1.33m-.13-1c.44.12.47.43,0,.36s-.44-.48,0-.36"/><path class="cls-29" d="M58.82,118.8c4.47.49,7.17,3.86,7.62,5.18l.74.21c-.66-4-6-6.07-7.69-6.72-2-.74-3.09.89-.67,1.33m-.13-1c.44.13.47.43,0,.36s-.44-.48,0-.36"/><path class="cls-30" d="M74.82,124.31c-.64.33-3.66-2-6.41-3-2.36-.87-3,.41-2.44.88s-.54.55-.46,1.2.91.15,1.25.6-.49.8,0,1.12a.9.9,0,0,0,.81,0c.31-.11.61-.22.8,0,.35.46-.53.91.29,1.45a.83.83,0,0,0,1,0,1,1,0,0,1,.67-.2c.66.1.65,2.3,1.71.5.38-.64,3.34-1.37,3-2.23l-.23-.3"/><path class="cls-31" d="M62.67,125.91c-.66-.69,0-1.08.35-1.1a2.17,2.17,0,0,1,1.79.59c.25.35,0,.82-.41,1a2.2,2.2,0,0,1-1.73-.47"/><path class="cls-32" d="M62.71,125.85c-.66-.69,0-1.08.35-1.1a2.15,2.15,0,0,1,1.78.59c.26.35,0,.82-.4,1a2.19,2.19,0,0,1-1.73-.46"/><path class="cls-31" d="M63.27,126c-.05.12.95.34,1.13.07.07-.1-.41-.32-.58-.37s-.51.2-.55.3"/><path class="cls-31" d="M62.64,125.33c-.07.17.2.49.35.48s.48-.22.48-.32a.67.67,0,0,0-.34-.46c-.19-.08-.46.22-.49.3"/><path class="cls-31" d="M64.5,125.84c0,.07-.73-.21-.83-.35s-.38-.5-.27-.55a1.53,1.53,0,0,1,1,.23c.14.19.35.33.12.67"/><path class="cls-33" d="M65.34,126.35c0,.21.26.38.59.38s.59-.17.59-.38-.27-.39-.59-.39-.59.17-.59.39"/><path class="cls-34" d="M65.93,126c-.32,0-.57.16-.59.36h1.17c0-.2-.27-.36-.58-.36"/><path class="cls-17" d="M66.46,126.35a.13.13,0,1,1-.26,0c0-.1.06-.17.13-.17s.13.07.13.17"/><path class="cls-33" d="M65.54,125.81c0,.15-.18.27-.41.27s-.41-.12-.41-.27.18-.27.41-.27.41.12.41.27"/><path class="cls-34" d="M65.13,125.54c.22,0,.39.11.41.25h-.82c0-.14.19-.25.41-.25"/><path class="cls-17" d="M64.76,125.81c0,.07,0,.12.09.12s.09-.05.09-.12,0-.12-.09-.12-.09.06-.09.12"/><polygon class="cls-21" points="164.38 193.29 169.2 193.29 169.2 198.71 156.04 198.71 164.38 193.29"/><path class="cls-9" d="M167.59,195.56a1.15,1.15,0,1,1-1.15-1.15,1.14,1.14,0,0,1,1.15,1.15"/><polygon class="cls-21" points="158.35 193.32 163.18 193.32 163.18 198.74 150.01 198.74 158.35 193.32"/><path class="cls-9" d="M161.56,195.58a1.15,1.15,0,1,1-1.14-1.14,1.14,1.14,0,0,1,1.14,1.14"/><path class="cls-35" d="M167.77,198.36s-17.66-70.82-36.44-71.51c-6.81-.25-16-.32-25-.31s-18.13.06-24.94.31C62.66,127.54,45,198.36,45,198.36h5.84c-.27.19,10.1-31.69,21.58-51.38,7.7-13.19,12.77-15.27,12.77-15.27s10.07.21,21.18.28h0c11.1-.07,21.17-.28,21.17-.28s5.07,2.08,12.77,15.27c11.48,19.69,21.85,51.57,21.58,51.38Z"/><rect class="cls-36" x="51.71" y="125.72" width="109.1" height="4.89"/><path class="cls-20" d="M148.58,117.93l4.54,1.19-.59,1.54-4.54-1.2a.79.79,0,0,1-.57-1,.93.93,0,0,1,1.16-.5"/><path class="cls-20" d="M148.61,119.8l3.75,1-.59,1.54-3.75-1a.8.8,0,0,1-.56-1,.93.93,0,0,1,1.15-.5"/><path class="cls-20" d="M149.17,121.86l3.37.89-.6,1.54-3.36-.89a.8.8,0,0,1-.57-1,1,1,0,0,1,1.16-.51"/><path class="cls-20" d="M149.83,116.36l4.51,1.25-.59,1.53-4.51-1.24a.79.79,0,0,1-.56-1,.94.94,0,0,1,1.15-.5"/><path class="cls-20" d="M153.55,117.38l2.9.82a2.55,2.55,0,0,1,1.8,3.3l-.67,1.74a3,3,0,0,1-3.7,1.61l-3-.83Z"/><path class="cls-20" d="M156.09,116.36s2.76,2.83,2.32,3.85c-.2.44-2,.62-2,.62l-2-3.84a.78.78,0,0,1,.48-1.06,1,1,0,0,1,1.19.43"/><path class="cls-37" d="M155.56,124.94c0,.88-6.54,1.59-14.61,1.59s-14.6-.71-14.6-1.59,6.54-1.59,14.6-1.59,14.61.71,14.61,1.59"/><path class="cls-38" d="M143,120.63a.81.81,0,0,0-.33-.14l-.55-.15a6.73,6.73,0,0,0-2.19-.18c-.35,0-.7,0-1,.09s-.75.15-1.12.23a5.77,5.77,0,0,0-1,.41,2.79,2.79,0,0,0-.45.24l-.38.25-.05,0-.06,0a.1.1,0,0,0,0,.07,1,1,0,0,0-.23.31.34.34,0,0,0,.19.42,1.47,1.47,0,0,0,.47,0c.2,0,.35.13.55.15a1.39,1.39,0,0,0,1-.49c.12-.12.36,0,.48,0a.78.78,0,0,0,.56,0,3.16,3.16,0,0,1,.5-.22c.22,0,.42.1.63.11a.92.92,0,0,0,.52-.08,1.62,1.62,0,0,1,.58-.27l.28,0h.28a1,1,0,0,0,.48-.21,4.36,4.36,0,0,1,.79-.28c.16-.07.26-.26.12-.4"/><path class="cls-33" d="M142.85,121.23a.81.81,0,0,0-.33-.14l-.55-.15a6.77,6.77,0,0,0-2.2-.18c-.35,0-.7,0-1,.1a10.59,10.59,0,0,0-1.12.23,5,5,0,0,0-1,.4,2.79,2.79,0,0,0-.45.24l-.38.25-.06,0,0,0a.13.13,0,0,0,0,.07,1.19,1.19,0,0,0-.23.31.34.34,0,0,0,.19.42,1.47,1.47,0,0,0,.47,0c.2,0,.35.13.55.15a1.39,1.39,0,0,0,1-.49c.12-.11.36,0,.48,0a.8.8,0,0,0,.55,0,2.25,2.25,0,0,1,.51-.22c.22,0,.42.09.63.11a1,1,0,0,0,.52-.09,1.6,1.6,0,0,1,.58-.26,2.64,2.64,0,0,1,.28,0h.28a1,1,0,0,0,.48-.21,4.36,4.36,0,0,1,.79-.28c.16-.07.26-.25.12-.4"/><path class="cls-30" d="M143.67,122.48c-.67.64-5.2-1.11-8.94-1.36-3.21-.22-3.56,1.58-2.68,2s-.47.86-.14,1.64,1.17-.14,1.75.29-.31,1.15.41,1.37,1.37-1,2-.6-.32,1.3.87,1.67,1.18-.76,2-.88,1.63,2.58,2.28,0c.24-.93,3.61-2.89,2.84-3.81Z"/><path class="cls-39" d="M143.82,122.57l-.09-.06c-.12.44-5.14-.21-7-.38-.56-.06-1.08-.82-1.65-1l-.38,0h-.17c.8.06,2,.93.37,1h0c-1.54,0-2.72.26-3,1l.08,0,0,0a1.31,1.31,0,0,1,1-.67,22.37,22.37,0,0,1,6.08.11c1.27.41-1.29.89-3,3.47a.93.93,0,0,1,0,.13,10,10,0,0,1,1.89-2c.77-.54,1.23-.3.63,2.5l.17,0H139c.42-1.49,0-3,.71-3.38,2-.72,3.79-.08,4.12-.61"/><path class="cls-31" d="M137.2,121.76a3.69,3.69,0,0,1,3.5-.07c.81.56,1.2,1.32.27,1.78a5.56,5.56,0,0,1-3.18,0c-.84-.26-1.24-1.25-.59-1.68"/><path class="cls-32" d="M137.34,121.6a3.73,3.73,0,0,1,3.5-.08c.81.57,1.2,1.33.27,1.79a5.65,5.65,0,0,1-3.18,0c-.83-.26-1.23-1.26-.59-1.68"/><path class="cls-31" d="M137.49,122.15c-.4,0,.07.95,1,1,.36,0,.46-.47.42-.64s-1.12-.38-1.44-.38"/><path class="cls-31" d="M138.73,121.35c-.54,0-1.16.35-1,.48a4.4,4.4,0,0,0,1.42.32c.28,0,.91-.27.93-.47s-1.14-.33-1.39-.33"/><path class="cls-31" d="M139.34,123.17c-.27,0-.21-.71.07-.85s1-.51,1.26-.43.8.76.43,1a2.34,2.34,0,0,1-1.76.33"/><path class="cls-31" d="M139.05,124.17a3.45,3.45,0,0,1,3.12-.06c.72.48,1.07,1.14.24,1.53a5.28,5.28,0,0,1-2.84,0c-.74-.22-1.09-1.07-.52-1.44"/><path class="cls-32" d="M139.17,124a3.48,3.48,0,0,1,3.13-.06c.72.49,1.07,1.14.24,1.53a5.28,5.28,0,0,1-2.84,0c-.74-.22-1.1-1.07-.53-1.44"/><path class="cls-31" d="M139.31,124.51c-.36,0,.06.81.91.87.32,0,.41-.4.38-.55s-1-.32-1.29-.32"/><path class="cls-31" d="M140.41,123.83c-.48,0-1,.29-.85.4a3.69,3.69,0,0,0,1.27.28c.24,0,.81-.23.83-.4s-1-.28-1.25-.28"/><path class="cls-31" d="M141.82,125.37a3.94,3.94,0,0,1-.87,0c-.24,0-.17-.61.07-.72s.9-.44,1.12-.37.72.64.38.8a1.92,1.92,0,0,1-.7.28"/><path class="cls-31" d="M135.59,124.3c-.66-.7,0-1.09.35-1.11a2.21,2.21,0,0,1,1.79.6c.25.35,0,.81-.41,1a2.23,2.23,0,0,1-1.73-.46"/><path class="cls-32" d="M135.63,124.24c-.66-.7,0-1.09.35-1.11a2.15,2.15,0,0,1,1.79.6c.25.34-.05.81-.41,1a2.23,2.23,0,0,1-1.73-.46"/><path class="cls-31" d="M136.19,124.4c-.05.12.95.34,1.13.08s-.41-.32-.58-.38-.51.2-.55.3"/><path class="cls-31" d="M135.56,123.72c-.07.16.2.48.35.47s.48-.22.48-.32a.67.67,0,0,0-.34-.46c-.19-.08-.46.23-.49.31"/><path class="cls-31" d="M137.42,124.22c0,.08-.73-.21-.83-.35s-.38-.5-.27-.55a1.59,1.59,0,0,1,1,.23c.14.19.35.33.12.67"/><path class="cls-39" d="M147.2,124.3c-1.4-.69-1.49-1.23-2.28-1.34a4.5,4.5,0,0,0-1.86.12c-.63.12-.37-.38,0-.45.84-.17,1.6-.19,1.57-.49s-1.24-.83-1.67-1.07.35-.55.54-.54a5.62,5.62,0,0,1,1.47.74c.31.16.79.65.88.52s-.58-1-.75-1.55.06-.7.31-.42a3.34,3.34,0,0,1,.48,1.09,4.22,4.22,0,0,0,1.11,1.7,4.48,4.48,0,0,0,.74.62.53.53,0,0,1,.24.78.56.56,0,0,1-.75.29"/><path class="cls-40" d="M143.59,123.19c.3.88-1,1.16-1.14.56-.65.56-1.3-.33-.69-.87-.61-.12-.86-1.42.15-1.52-.45-.66.18-1.27.88-1-.36-.77.75-1,.88-.58.16-.26,1.2-.21,1,.63a.5.5,0,0,1-.27.81.51.51,0,0,1-.29.77c.68.25.42,1.62-.56,1.16"/><path class="cls-41" d="M142.88,121c-.61.84-1.43-.07-.95-.5-.71-.11-.44-1.44.38-1.21-.1-.66,1-.92,1.05-.09a.35.35,0,0,1,.42,0c-.09-.75.84-1.3,1.28-.56.47-.83,1.31.07,1,.47.33,0,.74.86-.08,1.24a.47.47,0,0,1-.83.19.61.61,0,0,1-.92.32c.17.81-1.33,1.14-1.35.09"/><path class="cls-42" d="M147.32,124.26c-.2-.07-.1-.41,0-.51s.37-.42.5-.36.18.45.07.61-.33.34-.54.26"/><path class="cls-38" d="M144.38,123.71c-.55-.86-.41-1.19-.81-1.53a3.33,3.33,0,0,0-1.08-.57c-.4-.14-.09-.33.13-.26.53.2,1,.44,1,.27s-.41-.89-.57-1.17.38-.19.48-.12a3.61,3.61,0,0,1,.57.91c.12.2.22.64.31.59s0-.74.11-1.12.28-.37.32-.13a2.29,2.29,0,0,1-.1.78,2.83,2.83,0,0,0,0,1.33,2.58,2.58,0,0,0,.2.6.34.34,0,0,1-.13.51.37.37,0,0,1-.52-.09"/><path class="cls-43" d="M142.75,121.86c-.14.59-.95.31-.84-.08-.55.09-.61-.63-.09-.72-.3-.28,0-1.09.6-.8,0-.52.54-.65.83-.24.06-.55.76-.31.69,0a.42.42,0,0,1,.36.71,17.63,17.63,0,0,1-.85.69c.3.37-.32,1-.7.46"/><path class="cls-33" d="M143.08,120.4c-.62.26-.77-.52-.36-.6-.36-.3.25-1,.63-.55.17-.4.88-.17.62.31a.21.21,0,0,1,.21.17c.21-.45.92-.44.91.12.55-.3.71.49.4.61.19.1.12.73-.47.66a.31.31,0,0,1-.53-.17.4.4,0,0,1-.62-.14c-.18.51-1.13.19-.79-.41"/><path class="cls-43" d="M144.46,123.73c-.09-.11.09-.26.16-.3s.35-.11.4,0-.05.31-.17.37a.35.35,0,0,1-.39,0"/><path class="cls-9" d="M142.75,124.8a1.24,1.24,0,0,0-.76,1.87,2.32,2.32,0,0,0,2.41.67c1-.21,1.55-.86,1.22-1.45a3.34,3.34,0,0,0-2.87-1.09m1.69,2.3a2.13,2.13,0,0,1-2.15-.43,1,1,0,0,1,.45-1.63,3.12,3.12,0,0,1,2.6.77c.35.47-.05,1.06-.9,1.29"/><path class="cls-9" d="M144,124.94a1,1,0,0,0-.6,1.48,1.85,1.85,0,0,0,1.91.54c.8-.17,1.23-.69,1-1.16a2.67,2.67,0,0,0-2.28-.86m1.35,1.83a1.69,1.69,0,0,1-1.71-.35.8.8,0,0,1,.35-1.29,2.46,2.46,0,0,1,2.07.61c.28.38,0,.84-.71,1"/><path class="cls-28" d="M155.63,117.67c-1.79.67-7.28,2.69-8,6.89l.78-.22c.46-1.38,3.22-4.77,7.89-5.29,2.54-.46,1.37-2.15-.69-1.38m.83.68c-.49.07-.46-.25,0-.38s.49.31,0,.38"/><path class="cls-29" d="M155.63,117.54c-1.79.67-7.36,2.82-8,7l.78-.22c.46-1.38,3.29-4.9,8-5.42,2.54-.46,1.37-2.16-.69-1.38m.83.68c-.49.07-.46-.25,0-.38s.49.31,0,.38"/><path class="cls-9" d="M147.43,122.67a1,1,0,0,0-.6,1.48,1.85,1.85,0,0,0,1.91.54c.8-.18,1.23-.69,1-1.16a2.65,2.65,0,0,0-2.28-.86m1.35,1.83a1.71,1.71,0,0,1-1.71-.35.8.8,0,0,1,.35-1.29,2.46,2.46,0,0,1,2.07.61c.28.38,0,.84-.71,1"/><path class="cls-9" d="M146.77,122.15a1,1,0,0,0-.6,1.49,1.86,1.86,0,0,0,1.91.53c.79-.17,1.23-.69,1-1.15a2.66,2.66,0,0,0-2.28-.87m1.34,1.83a1.7,1.7,0,0,1-1.71-.34.8.8,0,0,1,.36-1.29,2.47,2.47,0,0,1,2.07.6c.27.38-.05.84-.72,1"/><polygon class="cls-44" points="149.47 125.41 149.4 124.49 144.74 124.04 144.86 124.75 149.47 125.41"/><polygon class="cls-44" points="149.9 124.67 149.4 124.49 149.47 125.41 149.87 125.19 149.9 124.67"/><polygon class="cls-44" points="148.81 124.94 148.69 125.47 148.29 125.57 148.24 125.08 148.81 124.94"/><polygon class="cls-44" points="144.51 124.8 143.93 124.9 144.05 125.38 148.29 125.57 148.24 125.08 148.81 124.94 144.51 124.8"/><polygon class="cls-44" points="148.5 123.63 148.55 124.17 148.2 124.4 148 123.95 148.5 123.63"/><polygon class="cls-44" points="144.29 124.44 143.77 124.71 144.03 125.13 148.2 124.4 148 123.95 148.5 123.63 144.29 124.44"/><path class="cls-37" d="M86.06,125.46c0,.88-6.53,1.59-14.6,1.59s-14.6-.71-14.6-1.59,6.53-1.59,14.6-1.59,14.6.71,14.6,1.59"/><path class="cls-45" d="M72.71,124a.56.56,0,0,0-.58.48,1.24,1.24,0,0,0,.45.83l.35.27a1.63,1.63,0,0,0,1,.3l3.38-.35c.31,0,.57-.26.57-.5a.86.86,0,0,0-.53-.66l-.7-.29a3,3,0,0,0-1.1-.21l-2.86.13"/><path class="cls-46" d="M72.71,124c-.32,0-.6.44-.35.64a1.37,1.37,0,0,0,1.47.62,15.72,15.72,0,0,1,3.67-.16c.32,0,.3-.3,0-.61l-.75-.53a2.08,2.08,0,0,0-1.07-.24l-3,.28"/><path class="cls-47" d="M72.48,124.07a.38.38,0,0,1,.23-.08h0l-.13,0h0l-.06,0,0,0m-.35.41h0m0,0h0m0,0h0"/><path class="cls-48" d="M75.53,125.73c0-.21.1-.45.13-.68h0a1.31,1.31,0,0,0,.31.64l-.45,0m-2,.14a1.6,1.6,0,0,1-.62-.27l-.35-.27a1.24,1.24,0,0,1-.45-.83h0a.49.49,0,0,1,.35-.41h0l0,0c-.22.13-.36.42-.16.58a1.48,1.48,0,0,0,1.13.67h.09a2.23,2.23,0,0,1,0,.57m.64,0c0-.22.12-.48.16-.73l.5,0a2.47,2.47,0,0,1,0,.65s0,.06,0,.06,0,0,0,0c0-.26.17-.48.21-.7h.39a2.7,2.7,0,0,1,0,.68h0l-1.25.13m-.34,0-.21,0c.06-.23.19-.45.23-.65l.29-.07a2.81,2.81,0,0,1,0,.69v0l-.16,0h-.1"/><path class="cls-49" d="M73.87,125.24a.55.55,0,0,0-.09-.44,5.45,5.45,0,0,0-1.07-.81h0l3-.28h.11a2,2,0,0,1,1,.25l.6.43h0a.6.6,0,0,0-.08-.08l-.49-.35a.67.67,0,0,0-.17-.08c.12.1.25.19.37.3a.9.9,0,0,1,.21.23l-.31,0a.56.56,0,0,0,0-.08,3,3,0,0,0-.79-.63l-.19,0,.55.47a1.07,1.07,0,0,1,.25.28l-.35,0a5.81,5.81,0,0,0-.94-.74h-.15c.16.15.34.28.5.42a1,1,0,0,1,.31.39h0a.51.51,0,0,0-.35.42h0v0h0a.87.87,0,0,0-.13-.67,2.63,2.63,0,0,0-.83-.58l-.18,0,.55.46a1.11,1.11,0,0,1,.42.78H75.1a.54.54,0,0,0-.09-.48,4.09,4.09,0,0,0-.91-.73H74l.49.41a1.09,1.09,0,0,1,.41.81l-.5,0a.88.88,0,0,0-.12-.66,2.52,2.52,0,0,0-.84-.56l-.19,0,.55.46a1.12,1.12,0,0,1,.41.77l-.29.07m-.38.06a1.48,1.48,0,0,1-1.13-.67c-.2-.16-.06-.45.16-.58l.06,0c.19.17.4.33.59.49a1.08,1.08,0,0,1,.41.79h-.09"/><g class="cls-50"><path class="cls-51" d="M72.13,137h0l.13,0h0a.28.28,0,0,0-.13,0m1.06,1.87-.09,0,.09,0"/><path class="cls-52" d="M73.19,138.83l-.09,0a2.23,2.23,0,0,0,0-.57l.25-.05h0c0,.2-.17.42-.23.65"/><path class="cls-53" d="M73.13,138.24a1.08,1.08,0,0,0-.41-.79c-.2-.16-.4-.32-.59-.49a.28.28,0,0,1,.13,0,5.87,5.87,0,0,1,1.07.81.55.55,0,0,1,.09.44h0l-.25.05"/><path class="cls-52" d="M73.66,138.82v0a2.81,2.81,0,0,0,0-.69l.19,0c0,.25-.12.51-.16.74h-.08"/><path class="cls-53" d="M73.71,138.11a1.14,1.14,0,0,0-.41-.77l-.55-.46.19,0a2.52,2.52,0,0,1,.84.56.88.88,0,0,1,.12.66l-.19,0"/><path class="cls-52" d="M74.4,138.74s-.05,0-.05-.06a2.47,2.47,0,0,0,.05-.65l.25,0c0,.22-.17.44-.22.7a0,0,0,0,1,0,0"/><path class="cls-53" d="M74.4,138a1.09,1.09,0,0,0-.41-.81l-.49-.41h.15a4.34,4.34,0,0,1,.91.73.54.54,0,0,1,.09.48l-.25,0"/><path class="cls-52" d="M75,138.68h0A3.26,3.26,0,0,0,75,138h.17c0,.23-.1.47-.14.69H75"/><path class="cls-53" d="M75,138a1.11,1.11,0,0,0-.42-.78l-.55-.46.17,0a2.57,2.57,0,0,1,.84.58.91.91,0,0,1,.13.67H75"/><path class="cls-53" d="M75.57,137.5a1.24,1.24,0,0,0-.31-.39c-.17-.14-.34-.27-.5-.42h.15a5.81,5.81,0,0,1,.94.74h-.06a.41.41,0,0,0-.22.08"/><path class="cls-53" d="M76.2,137.39a1.07,1.07,0,0,0-.25-.28c-.18-.16-.38-.31-.55-.47l.18,0a2.94,2.94,0,0,1,.8.63.56.56,0,0,1,.05.08l-.23,0"/><path class="cls-53" d="M76.74,137.34a1.51,1.51,0,0,0-.21-.23c-.12-.11-.25-.2-.37-.3l.17.08.49.35.08.08-.16,0"/></g><path class="cls-45" d="M75.8,137.45a.57.57,0,0,0-.58.49,1.24,1.24,0,0,0,.45.82L76,139a1.61,1.61,0,0,0,1,.3l3.38-.36a.59.59,0,0,0,.57-.49.85.85,0,0,0-.53-.66l-.7-.3a3.21,3.21,0,0,0-1.11-.2l-2.85.12"/><path class="cls-46" d="M75.79,137.42c-.31,0-.59.45-.34.64a1.36,1.36,0,0,0,1.47.62,16.32,16.32,0,0,1,3.67-.16c.31,0,.3-.29,0-.61l-.74-.52a2,2,0,0,0-1.07-.25l-3,.28"/><path class="cls-47" d="M81,138.48h0m0,0h0m0,0h0"/><path class="cls-54" d="M75.57,137.5h0m-.35.42h0m0,0h0m0,0h0"/><path class="cls-55" d="M75.57,137.5h0a.41.41,0,0,1,.22-.08h0l-.12,0h0l-.07,0h0"/><path class="cls-48" d="M80.54,139c0-.16.09-.31.12-.45.24-.07.2-.31,0-.59l.06,0a.76.76,0,0,1,.31.52h0a.56.56,0,0,1-.45.47m-.6.07c0-.17.08-.35.11-.53l.43,0a2.53,2.53,0,0,1,0,.46h0l-.48.05m-.71.08v0a3,3,0,0,1,.24-.6h.43a2.62,2.62,0,0,1-.06.54l-.62.07m-.62.06c0-.21.11-.45.14-.68h.46a2.9,2.9,0,0,1,0,.58.06.06,0,0,0,0,.05l-.57.06m-2,.14A1.54,1.54,0,0,1,76,139l-.35-.28a1.31,1.31,0,0,1-.45-.77v-.05h0a.52.52,0,0,1,.34-.42h0c-.22.13-.35.42-.15.57a1.45,1.45,0,0,0,1.12.68h.1a2.33,2.33,0,0,1,0,.58m.64,0c0-.22.12-.48.16-.73l.5-.05a3,3,0,0,1,0,.65s0,0,0,0a0,0,0,0,0,0,0c0-.25.17-.47.22-.69l.38,0a2.81,2.81,0,0,1,0,.69h0l-1.24.13m-.34,0a.75.75,0,0,1-.21,0c.06-.23.19-.44.23-.65l.29-.06a2.7,2.7,0,0,1,0,.68s0,0,0,0l-.16,0h-.1"/><path class="cls-49" d="M77,138.67a.51.51,0,0,0-.1-.43,5.56,5.56,0,0,0-1.07-.82h0l3-.28h.11a2,2,0,0,1,1,.25l.75.53c.24.28.28.52,0,.59a.63.63,0,0,0-.11-.56,1.8,1.8,0,0,0-.19-.21l-.49-.35-.17-.09.37.3a1.12,1.12,0,0,1,.41.92l-.43,0a1,1,0,0,0-.14-.72,3.32,3.32,0,0,0-.79-.63h-.18c.17.16.37.31.55.46a1.16,1.16,0,0,1,.42.9h-.43a.5.5,0,0,0,0-.52,4.82,4.82,0,0,0-1-.79H78.3l.5.41a1.09,1.09,0,0,1,.41.88h-.46a.91.91,0,0,0-.13-.67,2.68,2.68,0,0,0-.84-.58h-.17c.18.17.37.31.55.47a1.06,1.06,0,0,1,.41.77l-.38,0a.53.53,0,0,0-.09-.48,5,5,0,0,0-.91-.74l-.16,0,.5.41a1.11,1.11,0,0,1,.41.81l-.5.05a.88.88,0,0,0-.12-.66,2.52,2.52,0,0,0-.84-.56l-.19,0,.54.45a1.13,1.13,0,0,1,.42.78l-.29.06m-.39.07a1.45,1.45,0,0,1-1.12-.68c-.2-.15-.07-.44.15-.57l.07,0c.19.17.39.32.59.49a1.08,1.08,0,0,1,.41.78h-.1"/><g class="cls-56"><path class="cls-57" d="M75.67,137.45h0l.12,0-.12,0"/><path class="cls-52" d="M76.73,139.32h-.09a2.33,2.33,0,0,0,0-.58.79.79,0,0,0,.25,0h0c0,.21-.17.42-.23.65"/><path class="cls-53" d="M76.67,138.73a1.08,1.08,0,0,0-.41-.78c-.2-.17-.4-.32-.59-.5l.12,0a5.56,5.56,0,0,1,1.07.82.51.51,0,0,1,.1.43h0a.79.79,0,0,1-.25,0"/><path class="cls-52" d="M77.2,139.32v0a2.7,2.7,0,0,0,0-.68l.19,0c0,.25-.12.51-.16.73H77.2"/><path class="cls-53" d="M77.25,138.61a1.13,1.13,0,0,0-.42-.78l-.54-.45.19,0a2.52,2.52,0,0,1,.84.56.88.88,0,0,1,.12.66l-.19,0"/><path class="cls-52" d="M77.94,139.23s-.06,0,0,0a3,3,0,0,0,0-.65l.25,0c0,.22-.18.44-.22.69a0,0,0,0,1,0,0"/><path class="cls-53" d="M77.94,138.53a1.11,1.11,0,0,0-.41-.81l-.5-.41.16,0a5,5,0,0,1,.91.74.53.53,0,0,1,.09.48l-.25,0"/><path class="cls-52" d="M78.52,139.18h0a2.81,2.81,0,0,0,0-.69h.18c0,.23-.1.47-.14.68h-.09"/><path class="cls-53" d="M78.57,138.49a1.06,1.06,0,0,0-.41-.77c-.18-.16-.37-.3-.55-.47h.17a2.68,2.68,0,0,1,.84.58.91.91,0,0,1,.13.67h-.18"/><path class="cls-52" d="M79.18,139.11a.06.06,0,0,1,0-.05,2.9,2.9,0,0,0,0-.58h.27a3,3,0,0,0-.24.6v0h0"/><path class="cls-53" d="M79.48,138.49h-.27a1.09,1.09,0,0,0-.41-.88l-.5-.41h.15a4.82,4.82,0,0,1,1,.79.5.5,0,0,1,0,.52"/><path class="cls-52" d="M79.85,139a2.62,2.62,0,0,0,.06-.54h.14c0,.18-.07.36-.11.53h-.09"/><path class="cls-53" d="M80.05,138.5h-.14a1.16,1.16,0,0,0-.42-.9c-.19-.15-.38-.3-.56-.46h.19a3.32,3.32,0,0,1,.79.63,1,1,0,0,1,.14.72"/><path class="cls-52" d="M80.44,139a2.53,2.53,0,0,0,0-.46h.18c0,.14-.08.29-.12.45l-.1,0"/><path class="cls-53" d="M80.59,138.52h-.11a1.12,1.12,0,0,0-.41-.92l-.37-.3.17.08.49.36a1.8,1.8,0,0,1,.19.21.63.63,0,0,1,.11.56h-.07"/></g><path class="cls-39" d="M74.46,137.36l0-.07c-.19.31-3.81-1.29-5.14-1.82-.41-.16-.64-.84-1-1.1l-.29-.11-.12,0h0c.58.21,1.27,1.13.06.8h0c-1.15-.32-2.1-.4-2.43.07l.06,0,0,0a1,1,0,0,1,.91-.28A17.3,17.3,0,0,1,71,136.31c.86.59-1.17.38-3,1.95a.41.41,0,0,1,0,.11,7.47,7.47,0,0,1,1.87-1.11c.69-.24,1,0-.08,2H70c.64-1,.64-2.27,1.27-2.37,1.62-.12,2.86.76,3.22.45"/><path class="cls-31" d="M63,137.11a3.69,3.69,0,0,1,3.5-.07c.81.56,1.2,1.32.27,1.78a5.65,5.65,0,0,1-3.18,0c-.83-.26-1.23-1.26-.59-1.68"/><path class="cls-32" d="M63.09,136.94a3.75,3.75,0,0,1,3.5-.07c.81.57,1.2,1.33.28,1.79a5.77,5.77,0,0,1-3.19,0c-.83-.27-1.23-1.26-.59-1.69"/><path class="cls-31" d="M63.24,137.5c-.4,0,.07.95,1,1,.37,0,.46-.47.43-.64s-1.13-.38-1.45-.38"/><path class="cls-31" d="M64.48,136.7c-.54,0-1.16.35-1,.48a4.4,4.4,0,0,0,1.43.32c.27,0,.91-.27.93-.47s-1.15-.33-1.4-.33"/><path class="cls-31" d="M65.09,138.52c-.27,0-.2-.71.07-.85s1-.51,1.26-.43.81.76.43.95a2.39,2.39,0,0,1-1.76.33"/><path class="cls-31" d="M66.26,138.1a3.42,3.42,0,0,1,3.12-.06c.72.48,1.07,1.13.24,1.52a5.27,5.27,0,0,1-2.84,0c-.74-.23-1.1-1.08-.52-1.44"/><path class="cls-32" d="M66.38,138a3.45,3.45,0,0,1,3.12-.06c.73.48,1.08,1.13.25,1.52a5.27,5.27,0,0,1-2.84,0c-.74-.23-1.1-1.08-.53-1.44"/><path class="cls-31" d="M66.52,138.43c-.36,0,.06.82.9.88.33,0,.41-.41.39-.55s-1-.33-1.29-.33"/><path class="cls-31" d="M67.62,137.75c-.48,0-1,.3-.85.41a3.93,3.93,0,0,0,1.27.27c.24,0,.81-.23.83-.4s-1-.28-1.25-.28"/><path class="cls-31" d="M69,139.29a4.5,4.5,0,0,1-.87,0c-.24,0-.18-.61.07-.73s.9-.44,1.12-.37.72.65.38.81a1.93,1.93,0,0,1-.7.27"/><path class="cls-38" d="M70.93,139.58c-.55-.86-.41-1.19-.82-1.53a3,3,0,0,0-1.08-.56c-.39-.15-.08-.34.14-.26.53.19,1,.43,1,.26s-.41-.89-.57-1.17.39-.19.49-.12a3.49,3.49,0,0,1,.57.92c.12.19.22.63.31.59s0-.75.11-1.13.28-.37.32-.13a2.23,2.23,0,0,1-.1.78,2.82,2.82,0,0,0,0,1.33,2.58,2.58,0,0,0,.2.6.35.35,0,0,1-.13.52.38.38,0,0,1-.52-.1"/><path class="cls-43" d="M69.29,137.73c-.13.59-1,.32-.83-.07a.37.37,0,1,1-.09-.73c-.3-.28,0-1.09.6-.8,0-.52.54-.64.82-.23.06-.56.77-.31.69,0a.42.42,0,0,1,.37.7,17.63,17.63,0,0,1-.85.69c.29.37-.32,1-.71.46"/><path class="cls-33" d="M69.63,136.27c-.63.26-.77-.52-.36-.6-.36-.3.25-1,.63-.55.17-.4.88-.17.61.31a.21.21,0,0,1,.22.17c.21-.45.92-.44.91.13.54-.31.71.48.4.6.19.1.12.73-.47.67a.31.31,0,0,1-.53-.18c-.21.14-.54.12-.62-.13-.18.5-1.13.18-.79-.42"/><path class="cls-43" d="M71,139.6c-.09-.11.09-.26.16-.3s.35-.1.4,0,0,.31-.17.36-.3.08-.39,0"/><path class="cls-38" d="M73.31,138.91c-.87-.54-.89-.9-1.39-1a3,3,0,0,0-1.22,0c-.42,0-.22-.27,0-.29.56,0,1.06,0,1.06-.21s-.75-.63-1-.81.26-.34.38-.32a3.73,3.73,0,0,1,.91.58c.19.13.47.48.54.4s-.31-.68-.39-1.06.1-.45.24-.25a2.47,2.47,0,0,1,.24.74,2.63,2.63,0,0,0,.61,1.18,2.92,2.92,0,0,0,.43.46.35.35,0,0,1,.11.52.38.38,0,0,1-.51.14"/><path class="cls-43" d="M71,137.94c.14.59-.72.69-.78.29-.46.32-.83-.3-.39-.62-.39-.12-.46-1,.2-1-.25-.47.21-.82.64-.57-.18-.53.56-.61.61-.32.13-.16.8-.05.64.48a.33.33,0,0,1-.24.51.32.32,0,0,1-.24.48c.43.21.17,1.09-.44.72"/><path class="cls-33" d="M70.71,136.48c-.45.51-.92-.14-.58-.39-.45-.12-.19-1,.33-.76,0-.44.72-.54.69,0a.22.22,0,0,1,.27.06c0-.5.64-.79.87-.28.37-.51.85.14.63.38.21,0,.42.61-.15.8a.3.3,0,0,1-.54.07.42.42,0,0,1-.63.15c.06.53-.94.65-.89,0"/><path class="cls-43" d="M73.39,138.89c-.13-.06,0-.27,0-.34s.28-.24.35-.19.09.3,0,.4-.24.2-.37.13"/><path class="cls-9" d="M144.23,46.76a2.54,2.54,0,0,0-1.69,1,3.14,3.14,0,0,0-.78,2c.07,10.92.15,26,0,38.52a13.12,13.12,0,0,0,.22,2.38,2.27,2.27,0,0,0,4.53,0,9.33,9.33,0,0,0,.21-2.41V77a3.76,3.76,0,0,0,1.53-1.69,11.12,11.12,0,0,0,.87-3.61,46.8,46.8,0,0,0-.31-9.89,80.32,80.32,0,0,0-1.75-9.73,28.54,28.54,0,0,0-1-3.34,2.89,2.89,0,0,0-1.8-2"/><path class="cls-9" d="M71.72,57.68h0a1.13,1.13,0,0,1-1.14-1.13c0-1.46,0-4,0-5.74a1.84,1.84,0,0,0-3.67,0c0,1.73,0,4.28,0,5.74a1.15,1.15,0,0,1-2.29,0c0-1.46,0-4,0-5.74A1.84,1.84,0,0,0,62.69,49h-.35a1.83,1.83,0,0,0-1.83,1.82c0,2.95,0,8.43,0,8.43,0,1.52.34,3.33,1.59,4a10.48,10.48,0,0,0,4.07.63V89.09a7.45,7.45,0,0,0,.24,2.22,2.38,2.38,0,0,0,4.67,0,7.45,7.45,0,0,0,.24-2.22V63.85a9.83,9.83,0,0,0,4-.6c1.42-1.06,1.64-2.43,1.64-4V50.83A1.84,1.84,0,0,0,75.12,49h-.39a1.83,1.83,0,0,0-1.83,1.82c0,1.73,0,4.28,0,5.74a1.15,1.15,0,0,1-1.15,1.13"/></svg>