<svg xmlns="http://www.w3.org/2000/svg" xmlns:xlink="http://www.w3.org/1999/xlink" viewBox="0 0 163.15 187.85"><defs><style>.cls-1,.cls-14{fill:none;}.cls-2{isolation:isolate;}.cls-3{fill:#008c50;}.cls-4{fill:#e5bb82;}.cls-5{fill:#87c1a1;}.cls-6{fill:#2b2523;}.cls-7{fill:#5f4629;}.cls-8{fill:#fff;}.cls-11,.cls-12,.cls-13,.cls-9{fill:#015e53;}.cls-10{clip-path:url(#clip-path);}.cls-11{opacity:0.6;}.cls-12{opacity:0.4;}.cls-13,.cls-22{opacity:0.2;}.cls-14{stroke:#2b2523;stroke-linecap:round;stroke-linejoin:round;stroke-width:0.9px;}.cls-15{fill:#ffcb00;}.cls-16{fill:#da6c67;}.cls-17{fill:#d5e9dd;}.cls-18{fill:#bbcf33;}.cls-19{fill:#fff2cd;}.cls-20{fill:#6b3200;}.cls-21{fill:#ed7203;}.cls-22{fill:#1d1d1b;mix-blend-mode:multiply;}</style><clipPath id="clip-path"><path class="cls-1" d="M115.46,110.82c-.36-8.11-7.19-13.06-17.83-15.43-4.14,3.52-30.82,3.45-35-.14-11,2.31-18.11,7.29-18.47,15.57l-2.93,66.51c.2.21,19.15,10.12,38.56,10.12s37.87-7.74,38.56-8.43Z"/></clipPath></defs><title>ilustra_new</title><g class="cls-2"><g id="Layer_1" data-name="Layer 1"><path class="cls-3" d="M163.15,106.27A81.58,81.58,0,1,1,81.57,24.7,81.59,81.59,0,0,1,163.15,106.27Z"/><path class="cls-4" d="M81.57,187.85A81.17,81.17,0,0,0,118,179.28l-2.52-68.46c-.53-12-15.32-17.12-35.63-17.12s-35.1,5.08-35.63,17.12l-2.46,66.65A81.26,81.26,0,0,0,81.57,187.85Z"/><path class="cls-5" d="M81.57,187.85A81.17,81.17,0,0,0,118,179.28l-2.52-68.46c-.36-8.11-7.19-13.06-17.83-15.43-4.14,3.52-30.82,3.45-35-.14-11,2.31-18.11,7.29-18.47,15.57l-2.46,66.65A81.26,81.26,0,0,0,81.57,187.85Z"/><path class="cls-4" d="M52.28,47.94s-7.58-.43-7.58-7.58,7.58-7.58,7.58-7.58Z"/><path class="cls-4" d="M107.37,47.94s7.58-.43,7.58-7.58-7.58-7.58-7.58-7.58Z"/><path class="cls-4" d="M108.42,43c0,22.17-4,37.55-28.59,37.55S51.24,65.13,51.24,43,55,1.09,79.83,1.09,108.42,20.79,108.42,43Z"/><path class="cls-6" d="M72.8,42.35a1.91,1.91,0,1,1-1.91-1.91A1.91,1.91,0,0,1,72.8,42.35Z"/><path class="cls-6" d="M91,42.35a1.91,1.91,0,1,1-1.91-1.91A1.91,1.91,0,0,1,91,42.35Z"/><path class="cls-7" d="M93.17,3.7c-3-1.64-8.47-2.75-13.6-2.64A36.43,36.43,0,0,0,66.48,3.7C53.56,9.76,51.24,25.6,51.24,43c0,3.11,2.22-30.89,11.09-27.8,4.32,1.51,7.77,11.49,17.5,11.49,28.45,0,28.59,19.42,28.59,16.31C108.42,25.6,106.1,9.76,93.17,3.7Z"/><path class="cls-8" d="M69.34,52H63a7.49,7.49,0,0,1-7-5.79l-1-4.94a4.8,4.8,0,0,1,4.88-5.94H73.08a4.62,4.62,0,0,1,4.69,5.92l-1.18,5A7.82,7.82,0,0,1,69.34,52ZM59.83,36.16a4,4,0,0,0-4.11,5l1,4.94A6.67,6.67,0,0,0,63,51.26h6.36a7,7,0,0,0,6.48-5.14l1.18-5a3.83,3.83,0,0,0-3.92-5Z"/><path class="cls-8" d="M83.07,46.3l-1.18-5a4.62,4.62,0,0,1,4.68-5.92H99.82a4.81,4.81,0,0,1,4.89,5.94l-1,4.94a7.49,7.49,0,0,1-7,5.79H90.31A7.8,7.8,0,0,1,83.07,46.3Zm3.5-10.14a3.82,3.82,0,0,0-3.91,5l1.18,5a7,7,0,0,0,6.47,5.14h6.37A6.68,6.68,0,0,0,103,46.1l1-4.94a4,4,0,0,0-4.11-5Z"/><path class="cls-9" d="M77.27,36.87A5.21,5.21,0,0,0,73.08,35H59.83c-3.34,0-6.52.25-6.57.65s-.18,3,.07,3.22a13.68,13.68,0,0,1,1.23,2.54l.53,2.67a.79.79,0,0,0,.77.64l.15,0a.79.79,0,0,0,.63-.92s-.4-2-.53-2.68a3.62,3.62,0,0,1,3.72-4.53H73.08A3.45,3.45,0,0,1,76.62,41L76,43.58a.79.79,0,1,0,1.53.36l.6-2.56A5.2,5.2,0,0,0,77.27,36.87Z"/><path class="cls-9" d="M82.39,36.87A5.19,5.19,0,0,1,86.57,35H99.82c3.34,0,6.52.25,6.57.65s.19,3-.06,3.22a13.08,13.08,0,0,0-1.23,2.54l-.53,2.67a.8.8,0,0,1-.78.64l-.15,0a.78.78,0,0,1-.62-.92s.4-2,.53-2.68a3.63,3.63,0,0,0-3.73-4.53H86.57A3.44,3.44,0,0,0,83,41l.6,2.56a.79.79,0,1,1-1.53.36l-.61-2.56A5.2,5.2,0,0,1,82.39,36.87Z"/><path class="cls-9" d="M82.21,39.72a.51.51,0,0,1-.3-.1h0a4.62,4.62,0,0,0-2-.3,5.18,5.18,0,0,0-2.21.34c-.34.17-.71,0-.84-.51A1,1,0,0,1,77.2,38a5.84,5.84,0,0,1,2.69-.46A4.87,4.87,0,0,1,82.5,38a1,1,0,0,1,.3,1.19A.68.68,0,0,1,82.21,39.72Z"/><path class="cls-4" d="M79.83,97.48a4.07,4.07,0,0,1-4.33-3.76V79.94a4.37,4.37,0,0,1,8.66,0V93.72a4.07,4.07,0,0,1-4.33,3.76Z"/><g class="cls-10"><rect class="cls-11" x="41.46" y="123.37" width="76.45" height="9.56"/><rect class="cls-12" x="41.46" y="135.74" width="76.45" height="9.56"/><rect class="cls-13" x="41.46" y="148.1" width="76.45" height="9.56"/></g><path class="cls-7" d="M97.39,29.92c11.1-5.62,10.82,2.81,10.82-1.83s-1.4-40.47-44.27-23.61c-15.6-1.83-17.28,29.23-11.8,32.89,3.65.84,4.36-21.65,9.13-22.49C61.27,14.88,74.62,37.51,97.39,29.92Z"/><path class="cls-14" d="M74.34,57.6c.84,3.8-1.68,7.45-2.11,7.87"/><path class="cls-6" d="M89.61,59.12a.65.65,0,0,0-.91.08s-2.86,3.29-9,3.29a16.77,16.77,0,0,1-5.48-.91,5,5,0,0,1-.41,1.24,18.21,18.21,0,0,0,5.89,1c6.75,0,9.83-3.6,10-3.75A.66.66,0,0,0,89.61,59.12Z"/><polygon class="cls-15" points="94.9 69.35 96.11 65.59 100.67 69.62 94.9 69.35"/><path class="cls-16" d="M96.17,69a2.42,2.42,0,1,1-2.41-2.41A2.41,2.41,0,0,1,96.17,69Z"/><path class="cls-17" d="M103.22,71.43c0,1.22-3,2.21-6.74,2.21s-6.75-1-6.75-2.21,3-2.22,6.75-2.22S103.22,70.21,103.22,71.43Z"/><path class="cls-17" d="M123.85,71a1.21,1.21,0,0,1-1.21,1.2H101.51A1.21,1.21,0,0,1,100.3,71h0a1.21,1.21,0,0,1,1.21-1.21h21.13A1.21,1.21,0,0,1,123.85,71Z"/><path class="cls-4" d="M104.36,110.86h0a4.84,4.84,0,0,1-4.8-4.9,85,85,0,0,1,8-36,4.85,4.85,0,1,1,8.75,4.18,75.17,75.17,0,0,0-7,31.89A4.85,4.85,0,0,1,104.36,110.86Z"/><rect class="cls-15" x="75.96" y="127.87" width="6.18" height="4.22" transform="translate(-23 17.16) rotate(-10.83)"/><rect class="cls-16" x="68.49" y="129.96" width="4.12" height="4.22" rx="0.01" transform="translate(-69.08 78) rotate(-40.72)"/><rect class="cls-16" x="85.04" y="128.48" width="4.12" height="4.22" rx="0.01" transform="translate(-64.1 88.42) rotate(-40.72)"/><rect class="cls-16" x="90.94" y="130.27" width="4.12" height="4.22" rx="0.01" transform="translate(-63.86 92.76) rotate(-40.73)"/><ellipse class="cls-18" cx="73.63" cy="129.7" rx="3.03" ry="2.56"/><path class="cls-19" d="M75.4,129.7c0,.65-.79,1.18-1.77,1.18s-1.76-.53-1.76-1.18.79-1.18,1.76-1.18S75.4,129.05,75.4,129.7Z"/><path class="cls-19" d="M86.78,130.26A2.74,2.74,0,1,1,84,127.52,2.74,2.74,0,0,1,86.78,130.26Z"/><path class="cls-20" d="M83.76,129.76a.29.29,0,0,1-.28.29.29.29,0,0,1,0-.57A.29.29,0,0,1,83.76,129.76Z"/><path class="cls-20" d="M84.15,130.68a.29.29,0,0,1-.57,0,.29.29,0,0,1,.57,0Z"/><path class="cls-20" d="M84.6,130a.27.27,0,0,1-.28.28.28.28,0,0,1,0-.56A.27.27,0,0,1,84.6,130Z"/><rect class="cls-21" x="86.5" y="129.17" width="6.18" height="4.22" rx="0.01" transform="translate(-23.06 19.16) rotate(-10.82)"/><path class="cls-19" d="M69.46,131a1.09,1.09,0,1,1-1.09-1.09A1.09,1.09,0,0,1,69.46,131Z"/><path class="cls-18" d="M95.56,130.75a1.09,1.09,0,1,1-1.09-1.09A1.09,1.09,0,0,1,95.56,130.75Z"/><path class="cls-17" d="M67,130.89c0,.21,0,.42,0,.63a15,15,0,0,0,29.94,0c0-.21,0-.42,0-.63Z"/><path class="cls-22" d="M99.64,95.9c-6.75,20.65,2.53,53.54,17.28,68.29l1-16.09S100.27,111.07,99.64,95.9Z"/><path class="cls-5" d="M127.87,161.13c-1.93,0-4.37-.68-7.26-2.85-6.38-4.78-13.12-15.27-17.17-26.73-3.64-10.27-7-26.19-2.17-43.7L111,90.52a56.33,56.33,0,0,0-1.74,9.43,34.48,34.48,0,0,1,9.45,7.4c8.08,8.73,13.69,21.67,16.66,38.47.47,2.68,1.91,10.84-3.56,14.21A7.58,7.58,0,0,1,127.87,161.13Zm-18.52-48.85a71.62,71.62,0,0,0,8.94,27.45,40.51,40.51,0,0,0,7.4,9.65c0-.52-.14-1.11-.26-1.8-3.16-17.9-9.09-27.66-13.51-32.69A30.46,30.46,0,0,0,109.35,112.28Z"/><path class="cls-22" d="M96.69,145c-12.44,8-54.81,23.82-54.81,23.82l.63-10.33Z"/><path class="cls-4" d="M19.93,164.52c-6.93,0-15-1.41-18-7.84-3.33-7.16,1.3-17.38,13.78-30.38C24.74,116.85,37,107,46.93,101.2a4.85,4.85,0,1,1,4.89,8.37C42.75,114.87,31,124.3,22.67,133c-10.43,10.85-12.88,17.65-12,19.56.59,1.26,5,3.21,17.5,1.61,14.55-1.85,36.2-7.9,64.35-18a4.85,4.85,0,1,1,3.26,9.13C67,155.66,44.65,161.87,29.4,163.81A73.81,73.81,0,0,1,19.93,164.52Z"/><path class="cls-5" d="M19.5,164.8c-6.71,0-15.57-1.38-18.21-8.92-2.85-8.11,3.58-19.62,19.11-34.23,11.64-11,26-21,34.09-24l3.45,9.51C52,109.33,39,118.08,27.33,129a89.83,89.83,0,0,0-13.25,15c-3.95,6-3.33,8.25-3.25,8.48.3.85,3.43,2.85,14.15,1.85,12.68-1.17,31.76-6.08,56.72-14.58L85,149.37c-25.71,8.76-45.57,13.83-59,15.08C24.45,164.58,22.15,164.8,19.5,164.8Z"/></g></g></svg>